<mxfile host="app.diagrams.net" agent="Mozilla/5.0 (Windows NT 10.0; Win64; x64) AppleWebKit/537.36 (KHTML, like Gecko) Chrome/130.0.0.0 Safari/537.36 Edg/130.0.0.0" version="24.8.6">
  <diagram id="Ht1M8jgEwFfnCIfOTk4-" name="Page-1">
    <mxGraphModel dx="2019" dy="1143" grid="1" gridSize="10" guides="1" tooltips="1" connect="1" arrows="1" fold="1" page="1" pageScale="1" pageWidth="1169" pageHeight="827" math="0" shadow="0">
      <root>
        <mxCell id="0" />
        <mxCell id="1" parent="0" />
        <mxCell id="90gTbhmpNN-g71VCx14Y-59" value="&lt;div style=&quot;font-size: 25px;&quot;&gt;DIAGRAMA DE INFRAESTRUCTURA&amp;nbsp;&lt;/div&gt;Búsqueda Mágica: Laberinto Quidditch" style="text;whiteSpace=wrap;html=1;align=center;fontSize=25;" vertex="1" parent="1">
          <mxGeometry x="310" y="100" width="590" height="70" as="geometry" />
        </mxCell>
        <mxCell id="90gTbhmpNN-g71VCx14Y-67" value="" style="group" vertex="1" connectable="0" parent="1">
          <mxGeometry x="38" y="208" width="1094" height="557" as="geometry" />
        </mxCell>
        <mxCell id="90gTbhmpNN-g71VCx14Y-9" value="users" style="sketch=0;outlineConnect=0;strokeColor=#432D57;fillColor=#76608a;dashed=0;verticalLabelPosition=bottom;verticalAlign=top;align=center;html=1;fontSize=12;fontStyle=0;aspect=fixed;shape=mxgraph.aws4.illustration_users;pointerEvents=1;fontColor=#ffffff;" vertex="1" parent="90gTbhmpNN-g71VCx14Y-67">
          <mxGeometry y="100" width="100" height="100" as="geometry" />
        </mxCell>
        <mxCell id="90gTbhmpNN-g71VCx14Y-10" value="" style="endArrow=classic;html=1;rounded=0;" edge="1" parent="90gTbhmpNN-g71VCx14Y-67" target="90gTbhmpNN-g71VCx14Y-12">
          <mxGeometry width="50" height="50" relative="1" as="geometry">
            <mxPoint x="110" y="158" as="sourcePoint" />
            <mxPoint x="190" y="174" as="targetPoint" />
          </mxGeometry>
        </mxCell>
        <mxCell id="90gTbhmpNN-g71VCx14Y-11" value="Users" style="text;html=1;align=center;verticalAlign=middle;resizable=0;points=[];autosize=1;strokeColor=none;fillColor=none;" vertex="1" parent="90gTbhmpNN-g71VCx14Y-67">
          <mxGeometry x="25" y="198" width="50" height="30" as="geometry" />
        </mxCell>
        <mxCell id="90gTbhmpNN-g71VCx14Y-12" value="" style="rounded=0;whiteSpace=wrap;html=1;fillColor=#e1d5e7;strokeColor=#9673a6;" vertex="1" parent="90gTbhmpNN-g71VCx14Y-67">
          <mxGeometry x="162.5" y="120" width="157.5" height="80" as="geometry" />
        </mxCell>
        <mxCell id="90gTbhmpNN-g71VCx14Y-13" value="" style="rounded=0;whiteSpace=wrap;html=1;fillColor=#b0e3e6;strokeColor=#0e8088;" vertex="1" parent="90gTbhmpNN-g71VCx14Y-67">
          <mxGeometry x="360" y="120" width="160" height="80" as="geometry" />
        </mxCell>
        <mxCell id="90gTbhmpNN-g71VCx14Y-14" value="" style="rounded=0;whiteSpace=wrap;html=1;fillColor=#fad9d5;strokeColor=#ae4132;" vertex="1" parent="90gTbhmpNN-g71VCx14Y-67">
          <mxGeometry x="600" y="240" width="160" height="84" as="geometry" />
        </mxCell>
        <mxCell id="90gTbhmpNN-g71VCx14Y-15" value="" style="rounded=0;whiteSpace=wrap;html=1;fillColor=#fad9d5;strokeColor=#ae4132;" vertex="1" parent="90gTbhmpNN-g71VCx14Y-67">
          <mxGeometry x="600" width="160" height="84" as="geometry" />
        </mxCell>
        <mxCell id="90gTbhmpNN-g71VCx14Y-16" value="" style="rounded=0;whiteSpace=wrap;html=1;fillColor=#fad9d5;strokeColor=#ae4132;" vertex="1" parent="90gTbhmpNN-g71VCx14Y-67">
          <mxGeometry x="800" y="120" width="160" height="84" as="geometry" />
        </mxCell>
        <mxCell id="90gTbhmpNN-g71VCx14Y-18" value="" style="sketch=0;points=[[0,0,0],[0.25,0,0],[0.5,0,0],[0.75,0,0],[1,0,0],[0,1,0],[0.25,1,0],[0.5,1,0],[0.75,1,0],[1,1,0],[0,0.25,0],[0,0.5,0],[0,0.75,0],[1,0.25,0],[1,0.5,0],[1,0.75,0]];outlineConnect=0;fillColor=#d5e8d4;strokeColor=#82b366;dashed=0;verticalLabelPosition=bottom;verticalAlign=top;align=center;html=1;fontSize=12;fontStyle=0;aspect=fixed;shape=mxgraph.aws4.resourceIcon;resIcon=mxgraph.aws4.database;" vertex="1" parent="90gTbhmpNN-g71VCx14Y-67">
          <mxGeometry x="1000" y="121" width="78" height="78" as="geometry" />
        </mxCell>
        <mxCell id="90gTbhmpNN-g71VCx14Y-19" value="localStorage)" style="text;html=1;align=center;verticalAlign=middle;whiteSpace=wrap;rounded=0;fontSize=17;" vertex="1" parent="90gTbhmpNN-g71VCx14Y-67">
          <mxGeometry x="984" y="204" width="110" height="40" as="geometry" />
        </mxCell>
        <mxCell id="90gTbhmpNN-g71VCx14Y-21" value="Inicio/Login" style="text;html=1;align=center;verticalAlign=middle;whiteSpace=wrap;rounded=0;fontSize=17;" vertex="1" parent="90gTbhmpNN-g71VCx14Y-67">
          <mxGeometry x="186.25" y="145" width="110" height="30" as="geometry" />
        </mxCell>
        <mxCell id="90gTbhmpNN-g71VCx14Y-22" value="Ménu" style="text;html=1;align=center;verticalAlign=middle;whiteSpace=wrap;rounded=0;fontSize=17;" vertex="1" parent="90gTbhmpNN-g71VCx14Y-67">
          <mxGeometry x="385" y="145" width="110" height="30" as="geometry" />
        </mxCell>
        <mxCell id="90gTbhmpNN-g71VCx14Y-25" value="" style="endArrow=classic;html=1;rounded=0;entryX=0;entryY=0.5;entryDx=0;entryDy=0;exitX=1;exitY=0.5;exitDx=0;exitDy=0;" edge="1" parent="90gTbhmpNN-g71VCx14Y-67" source="90gTbhmpNN-g71VCx14Y-13" target="90gTbhmpNN-g71VCx14Y-15">
          <mxGeometry width="50" height="50" relative="1" as="geometry">
            <mxPoint x="480" y="70" as="sourcePoint" />
            <mxPoint x="530" y="20" as="targetPoint" />
            <Array as="points">
              <mxPoint x="560" y="160" />
              <mxPoint x="560" y="40" />
            </Array>
          </mxGeometry>
        </mxCell>
        <mxCell id="90gTbhmpNN-g71VCx14Y-28" value="" style="endArrow=classic;html=1;rounded=0;" edge="1" parent="90gTbhmpNN-g71VCx14Y-67" target="90gTbhmpNN-g71VCx14Y-14">
          <mxGeometry width="50" height="50" relative="1" as="geometry">
            <mxPoint x="530" y="160" as="sourcePoint" />
            <mxPoint x="530" y="20" as="targetPoint" />
            <Array as="points">
              <mxPoint x="560" y="160" />
              <mxPoint x="560" y="280" />
            </Array>
          </mxGeometry>
        </mxCell>
        <mxCell id="90gTbhmpNN-g71VCx14Y-32" value="Instrucciones" style="text;html=1;align=center;verticalAlign=middle;whiteSpace=wrap;rounded=0;fontSize=17;" vertex="1" parent="90gTbhmpNN-g71VCx14Y-67">
          <mxGeometry x="625" y="27" width="110" height="30" as="geometry" />
        </mxCell>
        <mxCell id="90gTbhmpNN-g71VCx14Y-33" value="Juego/Laberinto" style="text;html=1;align=center;verticalAlign=middle;whiteSpace=wrap;rounded=0;fontSize=17;" vertex="1" parent="90gTbhmpNN-g71VCx14Y-67">
          <mxGeometry x="825" y="147" width="110" height="30" as="geometry" />
        </mxCell>
        <mxCell id="90gTbhmpNN-g71VCx14Y-34" value="Ranking" style="text;html=1;align=center;verticalAlign=middle;whiteSpace=wrap;rounded=0;fontSize=17;" vertex="1" parent="90gTbhmpNN-g71VCx14Y-67">
          <mxGeometry x="625" y="267" width="110" height="30" as="geometry" />
        </mxCell>
        <mxCell id="90gTbhmpNN-g71VCx14Y-39" value="" style="edgeStyle=elbowEdgeStyle;elbow=vertical;endArrow=classic;html=1;curved=0;rounded=0;endSize=8;startSize=8;exitX=1;exitY=0.5;exitDx=0;exitDy=0;entryX=0.5;entryY=1;entryDx=0;entryDy=0;" edge="1" parent="90gTbhmpNN-g71VCx14Y-67" source="90gTbhmpNN-g71VCx14Y-14" target="90gTbhmpNN-g71VCx14Y-19">
          <mxGeometry width="50" height="50" relative="1" as="geometry">
            <mxPoint x="870" y="300" as="sourcePoint" />
            <mxPoint x="960" y="240" as="targetPoint" />
            <Array as="points">
              <mxPoint x="1030" y="270" />
              <mxPoint x="920" y="280" />
            </Array>
          </mxGeometry>
        </mxCell>
        <mxCell id="90gTbhmpNN-g71VCx14Y-45" value="" style="rounded=0;whiteSpace=wrap;html=1;fillColor=#fad9d5;strokeColor=#ae4132;" vertex="1" parent="90gTbhmpNN-g71VCx14Y-67">
          <mxGeometry x="600" y="120" width="160" height="84" as="geometry" />
        </mxCell>
        <mxCell id="90gTbhmpNN-g71VCx14Y-46" value="Instrucciones" style="text;html=1;align=center;verticalAlign=middle;whiteSpace=wrap;rounded=0;fontSize=17;" vertex="1" parent="90gTbhmpNN-g71VCx14Y-67">
          <mxGeometry x="625" y="147" width="110" height="30" as="geometry" />
        </mxCell>
        <mxCell id="90gTbhmpNN-g71VCx14Y-47" value="" style="endArrow=classic;html=1;rounded=0;entryX=0;entryY=0.5;entryDx=0;entryDy=0;exitX=1;exitY=0.5;exitDx=0;exitDy=0;" edge="1" parent="90gTbhmpNN-g71VCx14Y-67" source="90gTbhmpNN-g71VCx14Y-13" target="90gTbhmpNN-g71VCx14Y-45">
          <mxGeometry width="50" height="50" relative="1" as="geometry">
            <mxPoint x="530" y="173" as="sourcePoint" />
            <mxPoint x="610" y="173" as="targetPoint" />
          </mxGeometry>
        </mxCell>
        <mxCell id="90gTbhmpNN-g71VCx14Y-48" value="" style="endArrow=classic;html=1;rounded=0;exitX=1;exitY=0.5;exitDx=0;exitDy=0;" edge="1" parent="90gTbhmpNN-g71VCx14Y-67" source="90gTbhmpNN-g71VCx14Y-16">
          <mxGeometry width="50" height="50" relative="1" as="geometry">
            <mxPoint x="560" y="70" as="sourcePoint" />
            <mxPoint x="1002" y="162" as="targetPoint" />
          </mxGeometry>
        </mxCell>
        <mxCell id="90gTbhmpNN-g71VCx14Y-70" value="" style="group" vertex="1" connectable="0" parent="90gTbhmpNN-g71VCx14Y-67">
          <mxGeometry x="52" y="252" width="440" height="260" as="geometry" />
        </mxCell>
        <mxCell id="90gTbhmpNN-g71VCx14Y-68" value="" style="rounded=1;whiteSpace=wrap;html=1;fillColor=#d0cee2;strokeColor=#56517e;" vertex="1" parent="90gTbhmpNN-g71VCx14Y-70">
          <mxGeometry x="15.249999999999993" y="130" width="404.75" height="108" as="geometry" />
        </mxCell>
        <mxCell id="90gTbhmpNN-g71VCx14Y-58" value="" style="rounded=0;whiteSpace=wrap;html=1;fillColor=none;" vertex="1" parent="90gTbhmpNN-g71VCx14Y-70">
          <mxGeometry width="440" height="260" as="geometry" />
        </mxCell>
        <mxCell id="90gTbhmpNN-g71VCx14Y-66" value="" style="rounded=1;whiteSpace=wrap;html=1;fillColor=#d0cee2;strokeColor=#56517e;" vertex="1" parent="90gTbhmpNN-g71VCx14Y-70">
          <mxGeometry x="15.25" y="12" width="404.75" height="108" as="geometry" />
        </mxCell>
        <mxCell id="90gTbhmpNN-g71VCx14Y-55" value="" style="dashed=0;outlineConnect=0;html=1;align=center;labelPosition=center;verticalLabelPosition=bottom;verticalAlign=top;shape=mxgraph.weblogos.html5;fontSize=7;" vertex="1" parent="90gTbhmpNN-g71VCx14Y-70">
          <mxGeometry x="27.75" y="38" width="37.5" height="50" as="geometry" />
        </mxCell>
        <mxCell id="90gTbhmpNN-g71VCx14Y-61" value="" style="shape=image;verticalLabelPosition=bottom;labelBackgroundColor=default;verticalAlign=top;aspect=fixed;imageAspect=0;image=data:image/png,iVBORw0KGgoAAAANSUhEUgAAAgAAAAIACAYAAAD0eNT6AAAABHNCSVQICAgIfAhkiAAAAAlwSFlzAAAOxAAADsQBlSsOGwAAABl0RVh0U29mdHdhcmUAd3d3Lmlua3NjYXBlLm9yZ5vuPBoAACAASURBVHic7d1LsF1Xnd/x3zrn6i0Zy5KuHsY2dmHA2Ng8QjDdNDa0sSHIpjqEqmTS08wyY5BQqXIVswwz61FSVHcm6irAklHLujGyCaaI291YYDu0jcE2YN2XpPt+nbNXBsfyvRJ63H3O3vu/1vl/P1WunnSxV+nus87vrPVf/xUE2IrWA6hRKPH/y79DD/8OQENa1gMAAADNIwAAAOAQAQAAAIcIAAAAOEQAAADAIQIAAAAOEQAAAHCIAAAAgEMEAAAAHCIAAADgEAEAAACHCAAAADhEAAAAwCECAAAADhEAAABwiAAAAIBDBAAAABwiAAAA4BABAAAAh0asBwCgdsF6AIng3wHYgBUAAAAcIgAAAOAQWwAYZiz5AsA1EACA4ReNn59KEOPfAdiALQAAABwiAAAA4BABAAAAhwgAAAA4RAAAAMAhAgAAAA4RAAAAcIgAAACAQwQAAAAcIgAAAOAQAQAAAIcIAAAAOEQAAADAIQIAAAAOEQAAAHCIAAAAgEMEAAAAHCIAAADgEAEAAACHCAAAADg0Yj0AAJKkYPz8aPz8S/h3ABpCAMAws57Mrb/MAOCa2AIAAMAhAgAAAA6xBQCkwXq7IhX8OwANYQUAAACHCAAAADhEAAAAwCECAAAADhEAAABwiAAAAIBDBAAAABwiAAAA4BABAAAAhwgAAAA4RAAAAMAhAgAAAA4RAAAAcIgAAACAQwQAAAAcIgAAAOAQAQAAAIcIAAAAOEQAAADAoRHrAcC9YD0AAAAAAAAAAAAAAAAAAAAAAAAAAAAAAAAAAAAAAAAAAAAAAAAAAAAAAAAAAAAAAAAAAAAAAAAAAAAAAAAAAAAAAAAAAAAAAAAAAAAAAAAAAAAAAAAAAAAAAAAAAP0I1gPIxhMTH1Y3ftl6GACA62iHZ/XU6BvWw8jBiPUAslF0P6IQ/sZ6GACA6+iEr0kiAGxCy3oA2Yhx3HoIAIAbaHcmrIeQCwLAZhUFAQAAUhe3MldvEgFgs3bPTEiK1sMAAFxT1I7xSetB5IIiwDKOjp+X4l7rYQAAruq8ThzaZz2IXLACUAp1AACQMOboEggA5fByAUC6mKNLIACUEQLVpQCQLgJACQSAMjgKCADpCuJHWgkEgHIIAACQLuboEggA5fByAUC6mKNLIACUEXm5ACBZzNGlEADKaLG/BADpok6rDAJAObxcAJCqggBQBgGgFO4DAIBk7eqySlsCrYDLOnpuTtJu62EAAC4zpxOHbrIeRE5YASgrsA0AAAlibi6JAFAWVaYAkB7m5tIIAOWxxwQAqWlRAFgWAaAsUiYApIi5uSQCQGmkTABITmwxN5dEACirRcoEgOREtmfLIgCURsoEgAQxN5dEACiroNEEACSnTQAoiwBQVtzCSwYAyQnMzSURAMpabfOSAUByCABlEQDKGrtlRtKy9TAAAO9b0lMH5qwHkRsCQH+oAwCAVNCfpS8EgP7wsgFAKjie3ZcR6wFkipcNw6HNbwBUqIhSjM0/lx4AfSEA9IeXDcNhdKf1CDBMppakta7Fk/lR1gfif3942QDgSoXBr3+JGoA+EQD6w8sGAFeyCgDMyX0hAPSDtAkAlytks/8vcRVwnwgAfeFlA4DL2P36pwiwTwSAfrR42QDgMqYBgB9l/SAA9IWXDQAuYxkAOl3m5D4QAPpx/PC0gtashwEAyegaBYCgNZ364AWbh+eNANCXECVNWY8CAJJRFDbPjZp4b05GSQSAfnESAADWmW0BcAtgvwgAfaMOAADeRw+A7BAA+sdJAAC4xG4LgADQJwJAv3jpAGCdXREgP8b6RADoV6tFAACAS9gCyA4BoH+8dAAg9VoA29XhMxf3iQDQP146AJCs2wAzF/eJANCvbmDfCQAku/1/iTbAAyAA9KvL2VMAkGS7ArCNFYB+EQD6tbJ/Ur0LMAHAN7sA0NXIwWmrh+eOANCvM6Ej6bz1MADAnF0AmNax0LV6eO4IAINh6QkArAJAYA4eBAFgMLx8AGBVBMgJgIEQAAbBywcANAHKFAFgELSgBADDAMARwEEQAAbDywcArABkiQAwCLYAALgXLYsAWYUdAAFgICw/AXDOsgsgKwADIQAMokX6BOCcZRdAfoQNhAAwEF4+AM6ZXgS0lTl4AASAQXQWxmV5CSYAWLMLAFE7xietHj4MCACDOHn3ioJmrYcBAGbsagAu6Ni9q1YPHwYEgEFxFSUAzzgCmC0CwOB4CQH4RQDIFgFgYC1eQgB+WQWAyCmsQREABsVLCMAzqwDQYgVgUASAQfESAvDMrgiQuXdABIDB8RIC8IsagGwRAAbHSwjAJ9MmQMy9gyIADIqXEIBXlgGgoP5qUASAQXV5CQE4ZRkAttKDZVAEgEHtDryEAHyyvAmwG/nxNSACwKCOjc5LWrAeBgA0zm4FYE7HjyxaPXxYEACqQRIF4A8nALJGAKgGLyMAf+y6ADLnVoAAUAVeRgAeFYXNc1sUAFZhxHoAQyH42wL47n9o6che61FgEDu3t7Tv4DZdXLIeCQbxo1929T9f6Ng8vMMWQM4IANVw9zJ+8kPSgx8J1sPAANrtlvbuZQrI3dnfG/0Kl6TIRUA5YwugEv6WoyZmrEcAQJLGZy2P4hk9N3ILaxUIAFVwWAMwMWM46QB438Sc0WexiJLYAsgZAaAK0d8KwOSs9QgASIYrAJZdANsEgCoQAKrQ9rcfRQAA0uAyAIgOrFUgAFShWHP3MlIDAKTBdgvACgGgCgSAKjx9+0VJK9bDaBIrAIC9+ZWoBauZx+4egCU9dWDO6uHDhABQiRClMGk9iiYRAAB7picA7FYA3G251oUAUB1XS1KcAgDsOQ0ArubaOhEAKuPrJMDKmjTLXVyAqQnLhXC7LQBXc22dCADVcfdSsg0A2GIFAIMgAFQlBHf7UmwDALZcBgCHjdfqQgCojK8tAIkVAMCaywDACkBlCADVcfdSsgIA2LJrAiS7i4Ac3r5aFwJAVRwuS7ECANgyawJk9eXfe7i7ubYuBICqEAAANMxlG2CHd6/UhQBQla3+lqVoBwzYMgsAdkcApU6XAFARAkBVHjg4JaljPYwmsQIA2Flek2aWnAWAoDWd+uAFm4cPHwJAVZ4MhaRp62E0iQAA2DHb/5ekorB5btREr/U6qkAAqJarpSlOAQB2fB4B5BbAKhEAquSsEJB2wIAd2wBgtALg7EdW3QgAVWr5eznZBgBsmG4B2NUAuCu2rhMBoEoxuns52QYAbLjcAnC2ylo3AkC13L2crAAANlwGAIdzbJ0IAFVymE5ZAQBsmAWAGCW7j727ObZOBIAqxba7l5MVAMCGzy6ABIAqEQCqNOLv5SQAADbMigAtuwC2KQKsEgGgSkXL3ctJO2DAhssVALYAKkUAqNK7+yZkuTtmgBUAoHmdQjq/4C4AdLVtdMrq4cOIAFCll8KaJFd9qgkAQPMm56Ld97BdAJjWsdC1evgwIgBUz9USFacAgOa5PAIYfM2tTSAAVM/VS0o7YKB5pgHAqgiQEwCVIwBUz91LyjYA0CyXKwAO59a6EQCq5+4lZRsAaJbtVcBWz47u5ta6EQCq5vCyClYAgGa5XAGI/ubWuhEAqucupbICADTLrg2w7AKAw9tW60YAqJrDQhVWAIBm0QQIVSAAVM7fPhUBAGiWXQAobJ4ryePcWjcCQNVG/O1T0Q4YaJbLFYC4lQBQMQJA1bZ03L2krAAAzYlRmpp3FwCidoxPWj18WBEAqnbstiVJc9bDaBIBAGjO9EJUx2ol3u4mwAs6du+q1cOHFQGgHq5WATgFADTH5RFA+dtabQIBoA7OTgLQDhhojtMA4GpObQoBoA4tf9WqbAMAzXAZAJz9qGrKiPUAhpS7l/V//zLq99PWo0AZO7YV2n+wq9ll65HY2L0t6MG78vsN5LINME2AakEAqIPDlpXf+V+W54PRn0I67PTbX9Jf3N3W89/ebj2M0lzeBOjwR1UT8ou/OYgtXlYgcQdvCtZD6IvLLQACQC0IAPXgZQUSRwAoybIJUOFvVbUJBIA6tAkAQOpG9xAASrFb/qcIsCYEgFoEXlYgcdmuAFgVAVquAGz1d7KqCQSAOqy1Wa4CEpdrAJj0GAC6kTm1BgSAOpzcNytpyXoYAK4txwBwcTFqec3o4XYBYE7Hj9BqrAYEgPqQWIGEje6xHkF5LnsAUFRdGwJAfXhpgYTluALg8gggBYC1IQDUh5cWSNTOrb1OgLlx2QQosJpaFwJAfQgAQKJy/PUvOV0BECcA6kIAqAvLVkCyCAB9KMzafTOX1oQAUJcWy1ZAqnJtAmRaBNg1ei6t1WtDAKgLKwBAslgBKKmIkjgFMGwIALVh3wpIFQGgJMsmQLRWrw0BoC6RAACkKtctAJdtgIvAdmpNCAB12Vrw0gKJYgWgJNM2wG1+TNWEAFCX7996XkFWTTsBXEeOAWBhpfefCbubAJffa62OGhAAahOioiatRwHgT+UYAHz2AGD/v04EgFpRBwCkKMcAwD0AqBoBoE6BlxdIzZa2dPOO/AKAyzbABIBaEQBqRQMLIDWje4JCft//bAGgcgSAOtEMCEhOjsv/kuERQImbAIcUAaBOkXbAQGqyDQAeVwBoqV4rAkC9SK9AYnINABNWASBKiqwADCMCQJ1oYQkkJ9sugB6bAHGSqlYEgHrx8gKJyXUFwGUbYFqq14oAUC9eXiAx2QYAqxUAuyOAUqfLHFojAkCdto1Oye4WbQBXkeMWwEpHmllyFgCC1nTqgxdsHu4DAaBOx0JX0nnrYQBYl+MKwMRsNKvDUyyMnqsJKVgWIAw9AkD9WMICEpJjALDtAWAUABQ5AlgzAkD9CABAIlpB2rc7vwBgdgRQstwCYO6sGQGgfrzEQCL27w4ayXDW83kPAK3U65bhRyEzNLIAkjGa4fK/ZL0FQBOgYUUAqButLIFkHMzwBIDktA0wq6e1IwDUjUYWQDJyLACUDANAjL1WwDaYO2tGAKgfLzGQiFwDgFkRoGUXQFZPa0cAqBsrAEAyqAEoyfQeAH481Y0AULei4CUGEkENQEmWbYAJALUjANRt98yELHfRALwvxy2AbiFNz7tbASg0Ozpt9XAvCAB1O3bvqqQZ62EAyHMLYHI+2n0P2wWAKZ0JHauHe0EAaERgKQtIQI5bAC6PANIFsBEEgCbwMgNJOEAAKMeqBoAmQI0gADSDlxkwdvPOoO1brEdRnuk9AHZbABwBbAABoAkcBQTM5VgAKNEGGPUhADQhBtIsYGw0w+V/yWkNgPjR1IQR6wE44e5l/s43g750X54Trhfbt7W1/8B2za/4+Dt9YIf1CPpjtgUQZRcAWv7mTAsEgCa04ri3TgC7t0sPfMjHF0uu2u2gvXvb1sPADZzz2AbY4Y8mC2wBNMPdyzw5az0CYDiYbQEUhc1zJbEF0AwCQDPcvcwEAKAa52YcrgB0CuqmGkAAaIS/+wAIAMDgiihNWbUBtrsHIEpLk1YP94QA0ITjRxYlLVgPo0kEAGBwU/NRHauVeLMVgHBRJ+9eMXq4KwSA5rhaBZi46KzqEagBRwBRJwJAc1y91KwAAIPzGQB8zZWWCADNcfVSL69J88vWowDyZlYAKNEF0AECQFMcvtRTrAIAA3HZBpgmQI0hADTG374W2wDAYJzeBMgRwIYQAJoS/L3UE5bLl8AQoAYAdSIANMfdS80KADAYs3sALJsAOdwutUIAaIrDK4EJAMBgzO4BsGsCRABoEAGgKXGLu5d60nL5EhgCdvcAGH52t/r7sWSFANCU1ba7l5oVAKB/0bINsGUA6EZ39VJWCABNGbtlRpKrk/F0AwT6N70QtdY1erhdAJh7r3U6GkAAaJarCy5YAQD6xwkA1I0A0CRnxS0EAKB/LnsAyN9xaUsEgCY563A1vywtrVqPAsgTKwCoGwGgSc5WACRpas56BECeJjy2AXbYMdUSAaBZ7l5uCgGB/tiuABRWT3Y3R1oiADTJYY9r6gCA/tjWABg9N7YIAA0iADTJWQ2ARAAA+mXbBMjsJkB3P5IsEQCaRQAAsCkuuwAquJsjLREAGuWvwIUAAPTHrAiQi4DcIAA0yl8A4EpgoD8uA0DXX8t0SwSAJh0/PC2pYz2MJk2xAgCUNrMUtbxm9HC7JkDLOrmPGaNBBIBGhShpynoUTWILACiPJkBoAgGgea5ecgIAUB4BAE0gADTP1Us+sxi16mrTAxgcAQBNIAA0zlchYIzSlOVkBmTIZQBw2CjNGgGgaQ6PubANAJRjeg+AVRGgw0Zp1ggATQv+Ui4BACjH5QoAWwCNIwA0zl+vawIAUI5ZAIjq7dvZPNvd3GiNANA0hy85zYCAcny2AfZVH5UCAkDTor9e16wAAOWMe+wCGAkATSMANK3rMADMWI8AyIvZCoBdF0Bpa+GuPsoaAaBpK/snJRXWw2gSKwDA5i2uSgsrRg8vzKamjh649YLVw70iADTtTOhIOm89jCYRAIDNc3oCYEJPBlc/jFJAALDgrOEFRYDA5tkGAKvvYPb/LRAALDhreHFhQVqjHTCwKaYBwKoGIPiaE1NBALDg7ChgjNL5eetRAHlwGQAc9kdJAQHAhruXnToAYHPMjgBKNAFyhgBgwVkNgEQAADZrwmMRoMM5MQUj1gNwqaVxOauLe+rFQu9MBethYINd2wvtPbSmi4vD+Xc5cnPQ0fvb1sMozewioBgtDyizAmCAAGDD3cv+t89H/e3zzlJP8grp8Kr1IGrzbz89kmUAOGd1asayC2Db35yYArYATHDkBajb6B7rEfTHZRtghz+KUkAAMEEAAOp28KY8tzZctgEmAJggAFiYW6HgBahZjgFgpSPNLLlbASg0Ozpt9XDPCAAWzty5rCCuyAFqdHBPfgFgYjaancQzDABT77VIR8MIAFY49gLUKscVANMeAFYBgC6AZggAZqgDAOqUYwAw7QFgVQPAjyEzBAA7BACgRjkGAKc3ATIXGiEAWIn0vgbqsmOLtGd7hgHA4xYAbYDNEACsOLsREGhSjr/+Ja8rAGyHWiEAWGHfC6gNAaCkKLsAwI8hMwQAO7z0QE1yDQBmRYCWXQD5MWSGAGCFfS+gNrkGALMaALPmA5IiWwBWCABWCgIAUJdsA4DVCkDHsvagYC40QgCwsjvw0gM1Gc2wC2C3kKbnrbYAzO4BjtLSpNXDvSMAWDk2Oi9p0XoYwDDKcQVgcj7abcWbPThc1Mm7V4we7h4BwBLFL0AtcgwAHAFE0wgAljj+AtSCAFASXQBdIgBY4iQAUAsCQEl29wAwBxoiANji5QcqtnVEunlHfgFgwmMb4MA2qCUCgC0CAFCx0T1BIb/vf7YA0DgCgCWKAIHK5bj8LxkHALtGQAQAQyPWA3CtFccV85ys+vXvv9DSV+63HkV5//FvCnW61qPAZhAASipi7y4AC9QAmCIA2HL38h/ZG/XEZ/NbePrPfydNzFiPAptBACjJqgBQIgAYy28mHir+zsBOzlqPoD8HbrIeATbrYIZdACXDIkDLi4C2+psDU0IAsFSsuXv5cw0Aox/I80vFoxxXAGKUJj0GgG6kDsoQAcDS07dflOSqDWauAYAVgHyMZhgAzi9GrVnVmNgFgHkdP0I7dEMEAFMhSsHVRRiTM4a/NgZAAMhHjisALo8ABvb/rREA7LlaAsu1kG4/ASAbOdYA0AUQFggA9lx9CJbXpIUMNz0OZPir0itWAEqiCZBbBABrDlPwZIarABQB5qHdkvbtzu9v5TMAcALAGgHAmsMbAXMsBKQGIA8Hdge18vv+93kPACsA5ggA5vyl4IkMCwEJAHnIcflfcroCwEVA5ggA1mJw9yHIcQVg3x5l+cvSGwJASUU0vAeg5e7HT2oIANYc1gBMzVmPoLyRtnTzLutR4EYIACVZNgFScDf3pYYAYC362wLIsQhQohAwBwSAkiwDgMMfP6khAFjb5u9DMDFTWA+hL/QCSF+uAcBnG+C2u7kvNQQAayMHpyW5umg2xxoAiULAHOQYAGaWopbWjB5udxPgsk7uy3QmGB4EAGvHQlfSlPUwmkQAQF1yDAAcAYQVAkAKnB2HybEIUCIA5GCUNsDlEABcIwCkwFkxzOyitGK15DkAigDTl+MKgNMA4OpHT6oIAGlwFQAkadJy0usTKwBpC0HaTxvgcqwCgLMfPakiACTB4VHADOsAOAWQtn27gra0rUdRnsubAB22QE8RASAN7j4MOQYAVgDSluPyv0QRIOwQAFLgrAhQyjMAjH4gKOT5HeNCrgHAbAUgyq4NMFsASSAApMHdhyHHboBbR6Q9O6xHgWshAJRk1wNAitHdj54UEQCS4LEGIL8iQIltgJTlGwCMHlwYduQc8fejJ0UEgBTEre4+DDluAUgEgJTlGwActgFudd3NeSkiAKTg3X0T6u3IuZFvAMjzS8aDgxk2AVpak+ZX3AWAjh649YLVw7GOAJCCl8KaJFcfiBxrACSaAaUsxxWAczMuTwBM6MmQ541gQ4YAkA5XS2K5rgDQCyBdOQYA2yZAVt/B/mqeUkUASIerqtgLC1FrHetRlEcNQLpyDACmPQCsTgEEXz92UkYASIWzc7ExSufnrUdRHgEgXQcyrAFw2QZYLVdzXcoIAKlw2Bozx20AAkCabt4ZtG3EehTluQwA0ddqZ8oIAOkgAGSAIsA05bj8L7kNAO7mulQRAFLhMBVPWFZA94kVgDTleARQsmwDHCW7OnwCQCIIAKlwmIpz7Aa4c1vvP6Ql1xUAsyJAyyZAbX9zXaoIAKlwGACmMtwCkFgFSFGuAcBlF0BWAJJBAEjFVn9nY3OsAZCkv/pc0OG91qOAJLVb0r++s6XH7m1bD6UvZisAlhcBEQCSkWHd7JDa0hlXZ4v1KBqVawD4zjdb+s43pbcmpedeiXru1agzr0TNLlqPzIe7DgQ9ck9bj9zT1l9+rK1bduX563+1I11YNKwBsFFodnTa6uG4HAEgFcduW9LRc3OS9lgPpSk5FgFudMcB6a8fDvrrh4O6hfSrt6OeeyXq+dekF36dZ6OjFO3eFvTgXa33v/Q/c8dwLFxOzEW772G7FYBpnQl8MhJBAEjLuBwFgFxXAK6m3ZIe+FDQAx8K+k9flxZWpH98oxcGnnsl6uXf5R12mtRuSZ+8bf0L/6GPtLUlzxX+63J5BJDl/6QQANIyIenD1oNoyvRcbx5q5bmCe127tkkP3Rv00L3Sf/134bLtgp+8Jl2YJxBstHFZ/9GPt/WBHUP4UlzBNADYrQAQABJCAEiLqw9Ht5AuzEv7HKx5XG+74Ge/jlp1tih6YE/Qwx/pfeF/9b62br9l+L/wr2R6DwArABABIDFxXPI1EU7ORu3LtIlLv67cLlhalf7v6+vbBWffMtwbrsmOLdKff7j9/q/8T93eGsqVnzJcbgE4PO6cMgJAWtx9OCZnpY/daj0KWzu2Xr5dMDnbWxV47tWosbPSH8/nmQbuOhD0+P0jOnp/W1/4cFvbfR1yuSGXAYCrgJNCAEhJbI0r5DnZ92uYCgGrcuAm6YnPBj3x2d5P5I31A8/+Mmp+2XiA13DopqC/uLv3C//o/W0dudn5T/wbsGsDLLsAEPy1PE8ZASAlLU3I1/e/JmesR5C+jfUDna70yjtRz7wsnfpF1C/fimZz+a5t0ufvWl/W//TtLQW+8zfN9B4AO6wAJIQAkJQwLmcJgBWAckbal+oHpG9/I+j8vPR/XuutDvz4V9I7U/W9P1cez/vi3W1tZQbp27jHewAiWwAp4eObEocFMr0LgfjZ2K9bdl97u+C5V6JmBuxOuPF43iP3tLV3J3+rqkxYrQB0LGsPCndzXMoIACnptsfVtruj0wIrANW6/nFDafUGk/++XUFf/ljvy/4rH2/rzv184dehW0jTC1YrAGZzTJSWJq0ejj9FAEjJyX2zOnpuSdIO66E0hRqA+lx53HBxRXrxiu6EIy3pgQ3L+g9/tK2R4ei0m7Sp+aiu1few2RZAuKiTd68YPRxXQQBIz4SkO6wH0RRWAJqz84ruhJNzLd11205tG+FXftNMmwCZFQGy/58asn56XB2TmZwdvqY3uTh0c+DL38g5y4uwrNoAh+BqbssBASA9rlLyakeaXbIeBdAs7gFACggAqXF7EgDww+wIoGTYBpgtgNQQAFLT8hcApqgDgDNmRwAlLgLC+wgA6XH3IaEQEN6YbgHYFd24m9tSRwBITeGrCFCSJiwLogADZgGgiHbNRh1ub6aOAJAcf/tkrADAG5dtgFv+ftykjgCQmhF/KZkAAG/MVgDsTgBIbAEkhwCQmlbX3YeEIkB4EqM06XEFYIUVgNQQAFLz/VvPK2jNehhNYgUAnpxfjFrrGj3cLgDM65lDC1YPx9URAJIToqJcXZhBESA8cXkEMLD8nyICQJJ8FQKyAgBPXHYB5ARAkggAaXK1V7a40vsP8MD0IiCaAGEDAkCa3H1YWAWAF+c8bgE4W9XMBQEgSS13HxbqAOCF6RaA2T0AvlY1c0EASJHD/bKpOesRAM1wWQTo8I6THBAA0uTuwzI5Yz0CoBm2bYCtwoe/Vc0cEABS5LBlJjUA8MJlG2AFAkCCCAApcrgFQACAF6YrAFYczmk5IACkqPCXlikChBdmNQCW9wB02+7mtBwQAFK068CkpMJ6GE1645z06z8SAjC81rrS2GtdLVk1+rZbAVjWyX2s8SUoWA8A13D03ISkA9bDaNqBm6TPfzTosU8GfeV+ae9uXtG6tNtt7d2713oYQ+3Nyaix17oae62r0691dXHRMOTOrUrzqxZPflsnDt1h8WBc34j1AHBN43IYACZnpadejHrqxah2S/r0XUFfui/oS/dJn7ozqM2aFRK2uCq98Jvu+1/6L72V0EIeXQBxBQJAutydBLhSt5BefCPqxTei/tsPpF3bpC/cE/ToA71AcNt+VgdgUCCNrwAADL9JREFU79V3Cx1/ufeF/5PXu1rpWI/oGggAuAIBIFVR42zQXG5hRTr1i6hTv+hNZHcckB66N+ihjwd9+RNBu7cbDxAuTM5FnfmX3hf+02e7+sPFTGpX7LoAEgASRQBIVUvjymResfLWpPS9M1HfOxO1fYv0uY8EffGeXii4/46gQIBCBTqF9PI7hU6c7er42Y7+6e3Crp/OIKxOAdAFMFkEgHTxoSlheU167pWo516Rvvv3kWJCDGRj8d6pV7qaXc7xG/8KbAHgCgSAVMU4ziGN/l1ZTHjf7UEP3dtbIfizjwZt4c3HBgsr0s/e7OrE2a6eermj304NwRf+RlF2bYAL6plSxTSYqqgJvv+r0S2kl38X9fLvov770xQTovdj+J/fLt7/lf/8612tplq8VwXLJkBcBZwsAkCqYhxnE7seFBP6NDEX9dx7xXvHX+7qXU/dJwvD44gjbAGkim+YVH3jD7ep237behjebNsiPeikmHDYGwF1Cunnb3Z1/GzvSz/b4r0qLHekC8s2z97S2a/vf3Da5uG4niGd2obA117fpvaeJfE3MjXMxYTDGAA2Fu/9wytdzQ1D8V4VFtekmRWLJ3f0rw5u05MhoY5IuGR4ZrNhdPTcBUk3Ww8DPa0gfeKO4SkmHIYAML8SdebXhY6f7ejUK129Nc0X/lXNr/ZaATfvjzpx6FaLB+PGMp6+PAjjUiQAJKKIFBNa6xbSL95ZL9577l+6WutajyoDZkWAFACmjACQsqBxRX3Uehi4OooJmzE+G/X8670jeifOdnV+gV/5pdkVAXIEMGEEgJRFPjw52diZcKQtfeYu6dEHwtAXE1ZtaU366RvrF+q4Lt6rCk2AcBUEgLTx4clUpyv9/HXp569Hfffvo/bvkf7sY73Vgcc+GXSQjZ3LbCzeO/mrruZX+MavlFkAaDGHJYwAkDIuBBoaU3PrnQm//b3Liwk//1Fp64ivP/T0QtSz/++9av1fdfX2eb7wa8VFQLgKAkDa+PAMoSuLCXdukz774d7KwFc/FXTbPusRVo/iPUMxSnaH8JjDEkYASFlLE9wIOPwWVy5dZBT1X/7u8mLCL90XtGeH9Qj7c2426vSrva57Y691dWGRl9mE3f6/1CYApIwAkDKWz1zKtZjwyuK9l96i90sSLAMAFwElLdGpBJKkr4/fpRB/Yz0MpKPKYsIqGgFdKt47cbaj0691tbw20P8c6rDSkc4btQEuWof1o9FzNg/HjRAAUvbouV3aqnnrYSBNV3YmLFtM2E8AmJqP+vGve7/wf/TLrn5/gWX95C2tSRdN2gAXmj+4TWfCMN+zmDUCQOqOnpuXtMt6GEhf2WLCzQSAjcV7J8529cJvuqYryuiDXRvgSZ04NGrxYGwOASB1R8/9RtJd1sNAfm5UTHitALDxTP7p17q6SPFe3mZXpAWTvZlf6cShT1g8GJtDEWD6xkUAQB9uVEx4yeKq9MJvKN4bWnQBxDUQAFIXNcE6DQZ1ZWfCQzdLX/t01MTIsk6/1tUqu7TDiwCAayAApK6lcXoBoGrnLkr/49lCOkw3nqFndRMgx5iT17IeAG6E6zQBDMBqBaBFD4DUEQBSR4oG0K8ow3sA+PGSOgJA+vgQAeiP7T3KzF2JIwCkrogsowHoj2XTBlYAkkcASN0IHyIAfepY3gNQMHcljgCQutZOPkQA+mO3BRClpUmrh2NzCACp+8Hei5KMbvIAkLXCqqlTuKiTd5tcQIDNIwDkgSQNoDy7GgBqlzJAAMgBRwEB9MOqCVBgzsoBASAHgTQNoA9WAYAjgFkgAOSBDxOA8mgChOsgAOSBDxOA8uxOATBnZYDLgHIQNc6NgAA2pYjSalda6RpeBBTYtswAASAH3AgI4HrW3vvCX33vP+v5osUWQA4IADmIFAEC2KCIvS/8lU7v/1q2/L06AkAGCAA5YAsA8C1GabVYX9pf61qP6EYIABkgAOSgiONqkwAAV7rF+rL+csd+Wb+MFVYtc0AAyMHnDk3rH8c74u8FDK9Ly/rvF/BZtfEd2LyeObRgPQjcGMcAc/BkKCRNWQ8DQMXWutL8qnR+SZpYkC4uS4trOX/50wUwI/yizMe4pEPWgwAwgO6lI3rJFu8Njtbl2SAA5IMPFZCb/Ir3qsD+fyYIALkImsiqCAjw6lLx3vKlM/nOPrisAGSDAJCNOC7OAgLp2Vi8t9yVioz37ytBE6BcEAByQaoG0nGp895Kp7fEj3Ut5qpcEACy0RrP6yAwMERyPpPfuBYBIBMEgFzQDRBojs/ivYoEAkAmCAC5aIeJoTwyBKSiW/T28C8t63sr3qtKl5sAc0EAyAapGqjUZZ33OnZX5w6b1TZzVSYIALmY3T+h3eOF6N4I9I/ivbota+yWGetBYHP4MsnFmdCRdMF6GEBWukWvte7FZWl8XppakuZW+fKvD8v/GWEFICe9QsB91sMAkrWxeG+5I3X4om8Yy/8ZIQDkpKVxRX3cehhAUjpF78t+tUvxnj0CQEYIADmJLK8Bl3fe6wznhTq5omFZVggAeeHDBX+ipE53vb8+Z/LTRRfArBAAckIzIHixsfPeSkdiKz8PrFJmhQCQk1Z4h/1NDKVLxXsrnd6v/C7f+BnqKOq31oPA5vF7MjdPjB9Ut/iigh6XWkeluNd6SMjY4d12z750Jn+1K60UosF+ls5J8bSijkurY3r6Do4qZ4QAkLNvxbYW3/2kFB5RCI8o6CFFbbEeFjLSZACg894wWJL0U8U4JsUxPX34n6TAHzJTBIBh8q2J3VoqvqSgo4r6qqTbrYeExNUZAKLWj+hxoU7O3lTQmKJOaH7ptM7cuWw9IFSDADDMvj5+l6RH1NIjivFrkgzXe5GkqgMA1+YOg2mF8KwKjWmkc1I/vPUd6wGhHgQAL771zg4tbv3zXhjQI1L8tPj7Y9AAECWtvle4t0LxXqa6UviFgsZUaEwLo2feaz2OIccXgFeXFROGr0u6xXpIMNBPANhYvLfa5Vd+nn6roNMq4pi2bD+tH+y9aD0gNI8AAIoJPdtMALhUvLfy3l4+nfdytCjphfXivSMvWQ8I9ggA+FOXFxM+JukO6yGhJlcLABsv1KF4L2dvSjqhGI6rmP2JTt69Yj0gpIUAgBu7vJjwq5L2WA8JFbkUACjeGwZTCuHHKjSmYu1HOvnB31sPCGkjAKCch3+7Xbt2foFiwiGxcwvFe/laL95TOKHPHHhBTwb+kNg0Jm4MhmJCoEm9M/lFHNPKtmc0dsuM9YCQLwIAqvNkbOnFdz9FMSFQmfXivREd1w8Pv2o9IAwPAgDqQzEhUF7Uq2qF4729fIr3UB8CAJpDMSFwNZMK4YwKjandOqGnDvzRekDwgQAAGxQTwq+OFF6WihOK8TgX6sAKEy7SQDEhhtt68V6x9ZRO7pu1HhBAAEB6KCZE/hYk/UzSCY3EH+oHh39nPB7gTxAAkL5vTezWYnxQIT4u6RuimBDpKaTwz+9fqLNz6nkdu3fVelDA9RAAkB+KCZGGCYXwnAqNqdM6rlMH3rUeEFAGAQB5eziOaM/kg1I8SjEhatZR1M+leLx3oQ7Fe8gbEyWGy1+dG9VqfEit8IikxxV12HpIyNp68V575B/01IE56wEBVSEAYHhdWUwofVHSVuthIWnzks4ohuOK3VP60ZG3rAcE1IUAAD8ePbdLW8LnFeLjinpCQR+yHhLMrV+oU2hM50af00thzXpQQBMIAPDr8mLCxyTdZD0kNGJcITyvqBNaWz2hU7edtx4QYIEAAEgUEw63JUk/VYxjFO8B65jggKuhmDB368V7O9sndWx03npAQGoIAMCNUEyYg2mF8KwKjanV/QcdP/K29YCA1BEAgLIoJkwBxXvAgAgAwKAoJmzKOSmeVtRxaXVMT99xwXpAQM4IAECVKCas0hXFe0desh4QMEyYmIA6bSwmjDoq6Yj1kBLXK96LOqH5pdM6c+ey9YCAYUUAAJpCMeHVrBfvjXRO6oe3vmM9IMALAgBgZWMxofS4pDuth9SA9eI9hRP6zIEX9GQorAcFeEQAAFIxvMWEv1XQaRVxTFu2n9YP9l60HhAAAgCQpofjiHa9+4BCeFxqHc2smHBR0gsU7wFpy2VCAXz72rsH1NLDCRcTvinphGI4rmL2Jzp594r1gABcHwEAyNHj796rQkcNiwmnFMKPVWhMof20Tuz/Q8PPBzAgAgCQu0vFhL3agSck3VPDUyjeA4YMAQAYNhuLCRUfVdQH+vxfWr9QZ2XbMxq7ZabKYQKwRQAAhlm5YsIFST9TjGMa0XH98PCrDY4UQMMIAIAn/2bikFrxUSk+JukvpfB7hXhKis/oj4de4EIdwI//D1qqHMaP9hKuAAAAAElFTkSuQmCC;" vertex="1" parent="90gTbhmpNN-g71VCx14Y-70">
          <mxGeometry x="69.5" y="38" width="53" height="53" as="geometry" />
        </mxCell>
        <mxCell id="90gTbhmpNN-g71VCx14Y-63" value="" style="shape=image;verticalLabelPosition=bottom;labelBackgroundColor=default;verticalAlign=top;aspect=fixed;imageAspect=0;image=data:image/webp,UklGRmZFAABXRUJQVlA4TFlFAAAv08P0EBnHkSQ5SlRzAuj23+FVs4h/RP8ngN8vl3gClaQmA+/SNwTbQOIaDUA7AliqUgdJm7IlXtFcEi0w124w4ApfU64A3EmiAtHaaSsMj6bFBX3btGWYXjZ56TgWsgLHcRyDdFeA4ziOTBb84Q3c2LZdJ6sAeamAU4S8DxUqImKogsKJvYf7cDGbSJJVtYTPTDL4R9+/lh9fvYBtI0mKw6XVW8xg8f/2fwLwj350fMBV9fGP0M2gxAAMGACEGmZ8vMzUvA3vXGZqAoBB5h3UsAMY0OLtBAAhhLpkcM6EANQ1pQcgs2XLNDP9VeyXFu9fZ7gALOH6Wkc5vev9Xe/v+uKtAcBWREQRKijxfoiIACpStZn66KN9cwIIW/aZAiD6dG22/ri1+Vpc7dZincU6C6Dk841E3soGt1J84pNSulAvPinxo2+SVr+teCC3jSRJilD4b3UeVTUzu++ImAD9+X511V4kN77SlmiT3GB5qW90leUDvaa/A5BAkgN3Nf3OA0CBZAUSYwByIJnWtu9IoJZGe1sAU3IiudSMJ3ubV7buu+YEGGzrv2zs6/8/ciPpu5fD//+vzF9z6WF+lJMk0ASHX0v9DQ/qu8GawdQGm5VV4rBmMT3B+Fhqg5A5eoOpC+MBUaM96w6pLzgg6oJRs10XjC54WESJweZoeoM1h+gLRmvTE4yGoTaYvuCJtcFm8NUFe2dFTTBalrpgdKE3GAdtGwmSc//8yR2em7qJZFtWev7q5btFBSZIMUJMRhH9TZa2bcdW3d//f/iVbddWbdY0mkYDsG3btm3bxrK9PobfoMQ2kiRJkgPRXV2Y3KMHNTnVSo8jPT50tv82bTtj3ZukTp3v/+2stSbHGMHxXHscVCO2s561d6zOtm3btu1U2bcKOzu5qk4XXTPs7HS2k8Zh27aBRGX/jf+vdhVJkqVk3fGGT6QgBf9WWpZt26ZdravDfaxrRCVI/X9fe0W4RpJj28cR2zaO5OvRtd/5Zrx992Nr2rY1kpsPxFKY6f//qpzmiKdhGvWVp2c33Sucs9fM9hi63urAG46Z3VVzMDGzPaEx8+yWmbsME2+ZmTtgCDMnE46Z2dldVxg2kyPmZLOBLpPDtm0Eh8qj+0/csydb29potG0LPkASCIFsyIT9TRujBi49KjOSoyAjOyoyKjJy3ns/xpxhJGT4oCDJtuu26fff/wiEYO9/oQrATZAYSY7b9AK2o0WUm6Go4fKQ+LH1ANQqx803/f+/lLm+9J1TsHeP95y50bwdeVVvufNydbXR6lPIRecWrFucore0kh8mzOCnjSzF0i2EE79dzZamMMVVeHvDzHGZrNiFjTiWFWZaTdElIWjbNu7PH/Ifabb1xm0D0Nn/CrqWbqIn/zpZs0yR1AhOABiSIEmKG6gVwYbMau/DRqVmGOADECrSYfmP5T+W/1j+Y/mP5T+W/1j+Y/mP5T+W/1j+Y/mP5T+W/1j+Y/mP5T+W/1j+Y/mP5T+W/1j+Y/mP5T+W/yCTm96NBDwAph8BsAE6wII0PMAAWIsL7SSNkAfgBFQCUVE/AvAKGHFGOwJEwFRcAGTAe6AQ4JGHD7gBEcqPARwCckUeaawMSQxosYcPcBxJx8cegFmkUUDgSEIPfy/GyRg7EnUweIIFKNgRG2Dxh9sEnNkRQO/iD0CqKDtSQSDAS5MfaQJP+CMDnvEJB/7p1sz5kRYCaYT8iLuGQDoMqa8BNAJ/ChkzJG0Mfus8diRH4RV1ETsqqSEK8bmRxEXh1TdNdlRSUShUug47KqkpCnWhEjvSQKHWy44EYyh8PW5JNGlHnpVU1QY7CmydParyLKXGbVV5llI7ikOYUUqNXCSmcW4wo5KaIxFHnpVUVbfCi6SOqjxLqU0fid+9gBn1tTkkyvoteVZSVdOYH5VUeZZSQyRiMyOdtuIwyh4/KqnSnLE0CtH4V6eUFZXUlkSTNlXlWUp10EiJFQW2po3G718gz0qqqsOLjKnKs5TaWkMjISsqqYDy1kjyWEfjW3xZmjOWlhH5opxwopKKSBqMqKQGiHxDhBFJM0TmtGjyIY2SqjxLqVmCyO9gIM9KqmraEmlcJAIDZACBRPNZt6bKi6J5DziDjW9DBgzoI6mqSRmFn+m3/uBbHsAFccC9gAW7JNEYHvFwmN0Q3PjOB77jD7gg/4J5/yckjKSyYsbSM6O4gIBEkdRclR0FNhAwcbK0MS1IN7ZSyRTNb0Tg4TRLLVrCJDlHSamJrlJUUgo4qtFdBvaRVNWsxFAkegouf/s7OT/BA7xgoB9JVU1dLmzyNVQSchOVXjcqUV8uoFLFpJTKTXBACaBAIgEkJvEANmKnBwTcmCiS2sbliFwSZmIXpYEq+dhKBXIiTPXGKEgVSRVN9MYTBv6RVNU8Y6cvJ7pqIJNSwE9NokhqhExKTKikesjsdyFnJ6qGaGNz3TbYSTM31LhruMSPuUlJ7RZqZjVzmezOfljLhjTzGKBUJVNKnaCAkqoa8pKUOmqKKFRsYnNTFjSTSqpYZiwdqnUFZpRUG53kzCS7jBhqGhk2CTJmOtSEnjGiuiSqkima1yb0NQP8a+aqac6BmnnQRicuL/HKtDl9TTKl1J6DsiEApapcSqk17S7UDLkZAI1NPGYa6+iEIc28M6fYjI7NS0rqsKE/zlRFU0rtEgZJoK+pupwkpQ5p2RCBqmRKqfWJnoIhJRWhZPyXgThL8EkWMGAGYltVMgW2BWNKqmxSq9JASVW1Y/7rINddlkwGddrQg3gWo6ui7jFSBuKFBZROaYvJANZnJCV1wNCVDqGqaEqp1RoRlFTVPOWky8HqhpVUkRzr6FD98SEz2UAy0US1+8KIGYHS3xgkcaHea4+bUVKbKMXhJBZMjXEUozRcTrp0xGRH9nKZsXTBVAZinNLhvnHLxnswihd7bKSkvvKKIcaQeruqmIj7tftg0NhCWAmmlHrG1CWefgunuHwkpZaGC0gzF8M7szRUnzDzoFFBKhkfNWaU1IqPU5o573V6XUlxiuPyXgbi1hhOaTBfk+/BKX7Me9NUc9eQSoePspVSAs/1uKgx1ZE9Ur+ssc16PQV0VFUyRfMBQ9lKc6ySN5hIM68aehMpUJVMKXVwYsSgkiqWGUuH9pbMPHBSVdGUUg0dq9nA6w2K5aPMhmaVVJkcv+yCoVWJyGexih3yEK8sG2rQig+wnKevhWtYJYo9FmLaeLZSiRzr6KBOLBhC0Urs89DU8wxlNnRviVh2Z181NW5Z0STXURMyIqlimbE0Ldo8J46jyjhS6o11eo28ptDnZsAQxPRQNvC9DdFnmhrGDHNZw1SrNBiHVjWnTznXvgFomJB4JDTgJn7G1+nn/BRnXiNsdtQCnBV/s0QNfEb1/tV2eQzH1M0ox9UNwwmJur84EpTRuj8hKUP9yblICAxFTg5OgQl1mbslLNOd/ZF8YO7v18/z+7dZgDOk1a9124nv+x5uP/K9VJv9zadOU69ndDSTP3NJ4ziFqvfrESwhVjcirf5PiFM+XDdbCVrdPDLaQEJWv4zUt6gx1H+uXtLP5/4fiSwH4nwFr/jFUEod4TEZ4Y5tnBkkrvXYiW+wyg2cUaPXu55172OYGT5ZEiKj9f9Tp3q/HoJHIJYMMWrDcCvldyDmmIkwgQ26ceKvbeadJy7y0xFIHAMxJQsAV4yja7dG8sY6Wthuk/6HHjM4H5Iqf1KqSRANw1U8YUNSBVBKzQBpl4qkjj7EODJ68ctYmlmkOfllnsLfBETtns4jwZIqTbkuJAJiHOXRWdKjsmBQ8oAySEquaOGQadJNMUuWo5Q2Vt0pKHnog+zIDsSjXB3ZsysECMnD/JnDGCoPt1up6I11dBJVRz9hQlLXb0b8MpZCaYruVtpW5XcgFrtZ0oO7KSxu2XBNVQCl1DMNJavF1ZH9uqoASqnWY6gZiBoqj8ZtlUApFTwF2QumVTAv6xHRG+toAZFJazPkE87gFMQvYynGu+jxRc9yTbopbgmAFybBEJC1S7OpqdQG3YrHgRi3ZC2cgskjYMvApVPkWISVx4HYxy2lHKXQPzdOHqBC/4B/mCaNBpKq6iNVYGM2veSpOoISWcmo5lwOxAIopfbnnLC4ZWeRC8AzCaAu0/G1HXxupQIopY416UVbQvr8MTpL+oRHgGJTqZrFAdcaC0AuYYNHsGJWkZHUki1HqhIopQKi30BoNyJIqmru8AigUJWrhXxIqgRKqba4I6dnMKFiUQW7lAIWoTufKh1J3cLiVmrjt4D6WARMJxUZKr5mh8pSESh2acRIzQSYOBpbek8BG5k6sg/a2MXHKdsPJw0zt2qNiuogNwSU2CUKWeQazyYoSuXXCq5sB6CXhEeyECMGTMfM20yY+boqdqVUm0NYBdlRhWHBlwgrAZRS+xn1ah3lEWCLVSVQSj0zc/Spq2BDUiVQSr11SppbKX4pZUUODobSocx8qqKp0tFuzhPjKH4JgqJG616NmfFUiEXkx8E2sruVcs1YR4njc286fCioDsQTs7qRaWal+EdKTYXYkqk5+uTYbuHCzDlWSsVewtCZTmW5lbqAEr8kIUKh2T9MnBZ9hMUtGyOYCKVSKoMWJgxYs+IwCk63UvHLWDqDVUfVrMQcqcpZ5SgBpp8AKESmz1/KSgUvA5WMmbeY4pYNMEzAIE1zmX6SMK34JhSTMcilI02latQpj1spigkY5BJPJI6KmbeLvDFBUlUrOX9gq82K6kDMNSUGEYZJY/4AxY6szjSBFw/D+CF/YCVDZaEuMaDCMAmDNFYuc1FupeGyKstKqT/xjRKyk6MlVy5z1xXDAXAJOqHhRclCeYK0uGXnUEzMHrKLIaCqLAdigFVVARTNCyinsmIcbeGYVoU95r8E2IlyFU8zLNcGPNP06DOsVbNKqvQNUQHoPB0zN6OkVnwcUwnZ40HL0TRar6oaIcIxKXuwTO2la2iQMEqqaoM9ADLlqBVluuhrqlHMHUCSVVQGxtCD8DCSAVjuYK5bV26ljFkqeLVfKjJfNlRYBhPmlGkFNnDg9iKTiqFcIWraoJLKs6I5uFErLv8TAadK1ISpjuyxTMvhjWcwM0d3IB42eIM+5S9jqSEWk5HULuFdBaeZS1rBjxSg0k8KR0mVuMW3z6BKRlIN6WvNCMtUYpKDnYZJDE1fKwdkGON1MFmZVTyfsfRtRV/xd0eN0av6v40bH/y4b0INx2qrumKCRlm1lc7gH2DgNAz136IBc7Mo53op9eqXvY+UfGe0wX/uG2PjOfVe4w+XNP6JJekguVZtTVzcslwvpWJ1ozhoDd9kzIwOPmpU2OTYAqQqnqVUcsR4ZzoGy+FrxrKV8q3AhpkaC1A800BnRpLbiyLT3YA4nc20mvjUQ4oiA9QZBVwJnzkkR4rhy6VO1wus81YhvKfzE7XXDGjTyXrFZRhG6xN6hjab26QZskzTJZga0TaesWOeWZ9g6lT1bdLhs9vcEFbwjBdzDIPThvAVz9GxGYZyuTDGTSB4S+gkyq2042GalMuaJFblICn11ogWRitOIkpdDK2nqItpgiIGDyaq1a4vSkCq9QLe8GfsUYH2bS3VDEwnpe5VyzVkz9wdFfov8UBqlaTu7RroqKnq5ZdMKXWwak5JFUwpdWiwKzB3l+wkU0qtrZrTzCVTSq09bs6pkkwptTxdUEqqGN62z56FBQJteyg35ZdmgTxKqmpQ4RdqBLqDykETmTAeJqDMvCdA9wjg0J9z7ovNq49JPklql/AubN8cUgJ8l/EYTMBopTWDSirbZiFuJ19iqYayoGUVXON3eCwDcaupKplS6kKZQjdQOQrZRUmtksio6iTcQplE5nPH5jB9TcMI2YQOh90c26ijyCZvMgsTNRLdBZGAXRgk0YRPmgGrMGhqcApNF920UGmv0dm3JBzQjb0DNYT/eYX9wUAQnD2WgPdo62hhZSvF6/1f5zMlVS6zENcWaPQzHY9bGDC3GaElU0qtmSqplznJZNDclLYU3bgVXslAXDZ2zaFgSqlnTCmpiYtvWk0GU1Kb+KYJvPDXwHAqDYTTYpQBCQ+NDOw1XrR/LDu5rV8CF7S4xbChB1n7Zhg3Y+ntbyl2h+oSDC2f/xjzUquhZIyj+ayqZEqpg2WUb0ZoU30SMwqvVAtx+kvSV+FRg7pQI5KSqhpW2IRhU5q5F6oKpmg+qtMLBstvRS4zlprSzBsVjNMMuItKinJabMKQTo+Y+X3tYxwn5JOPew01G5WslFkX335oqMgdagDpSir2x2k+8s+Hi5ySWkW6kor+KTGP9ziAEiV1DeXEfCKl1iZMLZoTzrG5a9yyqoIppda0ZkpJZSSaKVWSWhDZSjlnCZ2Ix2boIF9Lm6pcJKUKnJTNEEKS6uCcSlGCOJBKJanGqjgK56QhmyiphjbnTNBGOjFvbeSXbEy5VzRvJ1yHhKt6P9KrOAr7S+k45vPSiHwNUG4Ifl1CJ/It/DkppHMK8RjWsZnkGs+FumklVSLHOlrT7sCUkiqaqPZcKBeIkso5a7GJUs28XBgd2YvjEjoZGg+lU8E6lYC7MhALpsA2NFIdMVYx+qIpmj9eU7PZSmVyrKO1qqHyW5nFOh7AInLFdFKLJJV5M5YyKH1IUkMcPkD+CmSN/TDRJKk9C4ZQvJPi8SOzSrBK28aylcZ4J2YRKdVctlK8Uwr4atyyjQzvZDwimpdNZSDGO06Lv5RUoezOHkeqqqYqvkkEpVSs+yosDdSNKamSJ6V2oAkICMCA6QYmt8uUkipwUmqnCYC1R2IAD3AcF9tKUkTGw4V9q7y/PBKmxTnj4l1JVY0Tkr+EACLg+L08hmO4xFZCaj1ZTmNJBa2cxhBZGu16Qdr4Jf8P5faJulsKKOhspcy5PUEoVpOQP8+9fj2ZIVkfXVnIiGJ/Hvdt1CYcNzk4r1/Z/51NdQ89r1CqOIph11dUQbNjqrRNoWaWhLSmOOHD18syknGGlFu8spDgCeO+zQ827rz6i2N7dt1D2pou0OkvcWgdiS48O25K22YMdc4C41Pz5n54ZVFOk/moYEkpkTSPA/42irNxAye5vz+73ofuoGwGQMQ8QUDNN85hcNH5vRyYmncgl/rbP86QFTS5M67ncZMbs402nhV6Fd9oUd13gf+CQSVVcDKWdnEmSQg9MjVvnQ//7R+H3zjxmY/KNEGbKwjzGOaRWXkbRw2HSr7WALSYxyEcl0D7opkmISteX0tCtKzzz/jFw3NXXGqSF1CI7irPBVNKKupxSbZQ7jNoU4gFpt64jqDt/I/PfHTi/PO1tOtrSch0sEP+OabOr5K6BDWWrVRApNQuF3SgOVhmJiJYjCCs8+GV/3H44WesfI4o0T4GyhkOpEwf0TLZBc3U4BQwTwKwBDod6A5KQsa6IrD/yQd+eOUfnn+GkNNoc2pJyHArbPcAiO3AtKIOaauQlVR+r0B7BWyBgAOwOIE6+cADBWNlLevwnXeWJF6CA8f8c7gFITWDe6m45beCeimVKi8hDFhr76WWul5KaEl/08QES1J4sclbhldrhT86Izg1l5RpjBggcY9NhtcQDqkxCEija42ss9QHPiBLaaSr5TQpcvLkLce8R0VFSK1zQkq87N4JU0oq7gGMRIDetY4QkRIy6W+axNVyytx3cUxn5klIdACJPGlyF2JfScX9gi8j5tbez7h3GTXaHTU0plAQYUMJkKjE0iW5KgNLqYV1F8zicZad6HcCCyTwOFq9wsea0W3Fx71DVDA0/oPDGetT2XV4YEgzL+GeCh9kLN1E1IpeWOsD018SrF3vaV23Ub8KPFRy6WuqjZANWMyUpNTZB3VDN90U99gAywesUq8cMdTMbjoyVkeiWPs6JhX1hGBKqmqYMAHLJ6TUYsmMkhquqCJfSmUCMutUou690NBAl+ewT4MLmsfT/YnF/4x1ZI99KZUJAGWTU6IuLLgq8GeZ4gAhjk1ESeNfKI0pEUnd415j5bfCSqI5J0ZeNtiO5qTbH2pq8S9aUeiF7T6gpDLIrvcc50B07yfzuNfOOSqSOpIQTElVTYsNCGnNNvSVeCyUxsp6RASl1E19R9SSmkIGpdQeFTPHcGSHsd0pKoJS6uKyEg/7kBNJRX7GUh6AjJmXI0xI6iz6CW0WYPMJqajHwTpz+G98FmBqg1K1IHz4S8K1z40MPiHdX9CjI0mOf1o8QH8T1a30wlKgWymnVoOTc3H/6AjxBIEu3Mu4VQA5OLthf2Y3CTOvuByImz4Pk+uj/dh3KyX+cnIpS/CP33cbWvjtY+SVLblHoqZqv1QEpVTous0RkdSlQs3MjB7/JDwgpT5O7jtwwbEhqSIopV5tKFHJiK4YobcRQYFtcUqSC5oC3BgBcDmAads+XhG1B9faL6UAgJYFsopT7xfcO8KGpIqglLq8SMTMuZwN7RYFKJU4QDO/2tFeY0NSMwrghCzQU4AqsShZVPEpQJozwJgzUAJEdiAuGjQkVdXGIE6vbsa8A/F1juqClohwK2XcJXQyeDXeBeg2Kjs/Uiov6sK+45d1ce8qTl2L8hguOFYHYvHr+ro3r5J6CnCJgM8WSuq9I7rChaSKoJTak4WZl5UE5BVe0sztlqoIiubLiykVdbm3gVMp4IBLR/anIan/azdsSKqq49K/fq83OElIarNBBHL6Q8TMV3QpEZ4jVeHau0q3jSnxGCnZ4pblYim1H+++4juJwz5N9YmEza2UiaVUh9JczD86okQk9cIuG5IqglIq9IDipMUtK4JS6gkG0zuyX+Ea0pYISqmLGTkWYbYcqcqglPo4+dGRBbakOYmglIrp8Sm14Or0mgpkAfnHAT9ekcTnVkoFKi75B4aT5rSAM0bayrVBUERQSu1f7RwxOIWEDTMXQSm1+X8lHk8wxS3bpgJ+h/igNEnVhUnj4FY6UN9VgGaWYz3gjB84atyy3YZO2rHRh5s8NNY1LStu2TU6gECBzdCZONejIDt6jKN1gKTK1ZZIXpynu5WuiM+RqmTtes8TMqr2YENS+UlKZYHvpTHGZqiYeX24lbLI9ilGSY5IdRqbsaMTUqIWJLiVctEs6RnAAaTUhUmON2klqHAcOuC49JsEUxfaga45U6Vh5kslWyKsJEhK7f7Tt/hhxU15/3jbk3qLlhWgzNx2aU4ceh6fW6nwSKkdiMciZ1go+Ud5f/tS2f9UPczWFF70fSBImfmiOopWdA+mOzcrdCCJyUWBFSv2ws6ADbMhF3b1pv0hBgEQSgkhEr6FFFKMTLA5EBNCSiVURao3JyNPVAj4mcAWtUfu6X6p6tw0jwEAtWCUwiczn3iiYFvq03wspU49Xg/XZiDtCttD2wVfXn/0eP9MVeeqXEoQKZMqDUklhJRKm0XY7GIK0ljkCHLbAm790eAG9cyUeC0F+XBok9zznszNCM2r5b/nnNjGdJCt5+iHQjZoe+jTFp2J6eBrL6tptBuHWwlckJJUavhZ9y7pirCNAiYBRXzSNcny5OlhPhAu+H3o2AkyElN77bXDvPPNcZPhiyp+4f8aPCRVFdDmpABry9M3RflTilCIOq4GCegudU4rrWmiobyeIZKCSGkAWkqQUYGyOb097Az5bafsftPc4OY3rWqgDm6ug4OMmZc8ciiBg3/KDGTrWX/ltsD+36O3Ngd9YNdqnb4nIPjmeHCY9OtzFdGBmEdOLyIgpWKYze86KLQf8OWw4wSLQB18LcebAgWAJAW4ObtalYik3suEpJKCDs5/rVEBvzVqf/rKIHdl1GnFeSQmVee0YnwChFggQJn5otIOTiSV7aXUHQavDmpM//OHIwSKUcqh7wm4j0CrjuxPDCJlgk0ML6Umnb6Vtu9+Q9jnhg/vms4ENb9xATBMO0BOIuNrXEgqs5N0MpC2r//zth/9967p1zS/OWmN6VKK4wJcuF3UIFIc00nc2zCywGbIbcO6tkAC0s6w68tBPuR3P328j6nUW2P7h1BmvsSIpPJxxtKM2sJVGnXypqgr4rqBbf32sfk5Q53oG90B8mjf0QPOEJcjVYatBqe1f+otDZ629sgaNof1oSHQHzQOyuZV59QJv7YdpCSVjJkzIakuLcgwKQij11tBs3g8rASlEIViVIkI4NJQJSDgqPBr0HhAZASIvQeuEgUABg0fkqpaynH4a01t6jeRGpXO+0XoCROrgDqHTOqcq1Y0IsaArQLE3ssQSbnMTZ3bhoFnSY80SiM5igIljH4VliMMGBOEQ66NywN2diStzCqnF0aWUqv0JX94jlek/CbDcPC1Mdv+YG8wtKK1SkBQCJpZKba9M0s1mvpR6pzW1lz9WkGsE2Bnj+A85AW+l/BobHPBpdsTxP1N6/tggJAJ8OSfvRe1+b7NlMEEgKQFgK1XYCNdBFmiPwU7tRYSJ+gThxUvkkr68csOBa4jfZN4krrDNGn4kFRVN6UdHJgMsKUAOORkLb8VSaK54s4BLgir7yp9mhtEI6kysneVaDTAubbHZWIB4DDm4BSkb6yjx1CR1KLFlE9RcjSARHWsSMbMSyFIquisxSZygigVHCAaShSETEhqemtkaKyjHLdOcNjyDBFJbRXMbqXCN37Z7gZqcVgjiJmrRgBHOzrBYeKtSlKuFyqP1qmBR7wtkSxEpoKTmZNjER7t5iwGmbeppArQRJiQkw4MjmNomHnanVXlSp+/JAlsFOB6mgSZflu84EFS6YFDu0MF2FLAvBO00skAm6vkoJSRDo4JTpM6Ty4aQyRVNSiRjuuD2zyXOUn4WkYPshbpYAEKDCgZ3Di5lUZ6hV4pAKaHWEuiGKgot9KUrAAqFA2pNkwbQqvnOsk8epCEhfH59JOypROdb9wl2+HzOgwAjvhiulavSZl5wVUHozkQK5cDcaD0ICqQZuSpKz/P6/K7mNv5rlem25VtPIumXWldlxCl6g3rjAbG3mUtoChXC/kW+B49pNRICyNkvJ3095ntfythVcy7P3dm3a9/93ucpdyxXI9oesgzczeA9MPEopvL2WDURLyLQ70RHh09mU9W/gPfdhRbd777mXW9sj2uQuNZblvHEMAjQxmty9RWalPMqCqXWyldBbY2oCoAEW87Fc/Q/WXDVWk7CtzOdrvWy/U451/XS78b2iBIHBMY47qFuB+seJFUsnZn3wboqQCLjlZcXvkXfLjK5u38XtO4XYsiil/KssZ6lHJdgsYTAosqjiXymufVnC3bAcTNWErjgCoEIjHmdUlY5Y+CZec8zjk541UwH9WWrVBEXBCB0ro2w6StZZkLqqOiLmz5RCSxlDpe2y2NMQAUssq21W8+cq5XxuPMG8+S7fT5zQQU9gatUAQjkUlZoHwmeS3Vsi3rESpLqQQAMNImQh8qWVfeeGQ27mzXqzB3K/OnEjYRLA7zw1hCs39gWAVVctGQqD/avoGogtVm6BAbUcl30bSyppXZ/cx1v5e4WyW82MhBNPbFVKl1EVGCFhhQzMhIKo/8myFpFuJmlTuO2QrqNxVdbWBgQAlT5rvf1FnXnXG78lseZcvdRy4mLIpuu7IDij0XcJKGmSdc+FoWUYQ3y3HFBEf2oEEb4cgiYkL7sEuWypkm47qz7vfC5mel7a6QiwgWp/2qI4YQ36a16mG2tKi5k0WRGLKAJthCV8IsmCq7cTKut5zxUco9q8iDwZ3yXVtWqWsWgg9JJYqU2jCFvRcBMOBCJVTZFnmuMm47u9uVt/5UrD8+cjt9NO1taLKAlAhQZl4D1JVOxoOkAmrdhCBzcYDgWm2giY/7MIv8N2fuzNyZNd0Ltl/VtqdCL4audLdb4iKBdSIFEBVJbTt5SCqlq8FpZBEMuNhCVcJPYVtmTdPXeOWszxL/9uGDCWcKz/7PgKSXKeXgOgnnSAIQN+j4MX5CAKMXKiHK/CdvjsymneFu/ZZ3WXgpeGPoJhhjESmabIvWqKTdWqCbAfQXGXMj2n8mlA+/Rf6b47qPk+VeReu7mv9R6C2NZf/HJwOTmffUETu9ZnQrZYaMpSO3toEY2grNatunsPWb4bqPu+e5Vwm+ffhMVdn/ThN5iIkJscAAhbyCutjdSik0ua2olcI/qGDsnjdHn3ll5m79zf9V4FsJt70IWEE77dBqAoPa/ISP6g5MR2V/CqwTKdTsgcBAHpJK/uIAUdHVBppgQvr8p8h/spbs484LS+Z3NXwNyv6nGx8/RtAMPbMnlieyWk/NCy6qODm+aKbhLwFGoiDGfFHiWrXsP1uInQtb/2VM1smbfkrI/79amQGQRlwdwDF2QJI0LbMza8/0Whyntgr0Ct32EDtBmHkzQTHGhuAkCCJ6UAnfsu1f3lJ93MpsfhRM77LwSyH302nAlSp8+IgopqkYnVh7YRiIFN+sAwHbViBUJPUh4W6ltN+PTipqUa0U3h/5FFu+OS7/mTW/itZf1fwrLYhhmKALDHqEx2lyuj3LC9OJzPBNLgnDuUYrrhIfHbGQLRFWNImuQ6mi2H8Gem4l/y2YI7NlMpvuueZXCf7yhSeDO+mrhraaPRIHJE03sDwxPdGqqLxjICQ2TdNGLrfSHFASBSAQqnll5NY20YNKiLLtm7dkZm5nTI9+y6vCv3z0fmti77aDyAF5kqZjOTO90Ou0Nw7TF2OLVMy8zdeRPWFEc7nQxIM+H0U+cpbJbDyz5mfB9qq2PRVyEbVvT9j9sgVI8mJrG53Ze6Y7kgm+VdiG72HFlLi/yvZR5XIrpYmUKtsEEVEFFgFNMJgVIQrznTXpa7ryW16llmcVfTB4EC1OznwBPKCVMxwsMJzIMr6ROgJCZ5hO0zDztGgLRlJZogLtca02MOBCJWSZr35zZ7id2fzot/6UrfckjNDSajIIxDGSoestMF1olVSLSyCUhuTTWtPkIKkRIFCFcR0mZy8hIoYOQ8bnswjlt0zGeMua7wXrs8JfCtlAwENJduAuT9G1ljE9O7od4rU1hAo5OIVZAUgqy8yofOTWARcb6Uo4Basct7OmR85yK9ru1cKhwKIBVwL5SF5ibbMTyyvDHi+yEAAgcpStxlKi+jbcmyOrFiixDPVbz5xwZtFnHj1L0e3DNUV0OxckyYG7uIimYDiyerHkIb7JnRB2A3ymo6nF1JG9Txa6XmgeOe0/+ugqobsf7Cx6y2JXQTjLI0c1ZsCVCAXrII6TjNdbPbNcyAofmcXKtLDJzAGWjEgqebIbymn/QUTGiubTjn4YXFVs3ZwLzhxy5SJXYfQso8sHRlQg1qWmDAIBiNN0O8tYnhyNCmIjInPjFxAxcy4H4lJEFqTuB0HG214W2j4SzzzyV4G1dVHYudi10koa1hTXUlNEHvVmTeP+68x6nDDcgggZlJrErETMFkJzr8ktdSRKAAxSMTwcLVJu7AsKXRVkVwqHjDbGc0GcPEEqGR0tMB2JlE8M8kUJKxbUHY3hVNrwl9imOECICwAYj3hh9CMJqPDFw4ndgjhxgmQY9UyvTBdahrJQBdFsKUAFORCHAEkWAK/zXDgJ/rZArXg9cOcBwdDtmT2zPNGrdFVeVO9SDItomHneneVDUhlESi16ZhoiPyAkdI37rzdqcZHhFkTWOhCl1BhHjSmpdJFS0fwcR50oFb5seWY4EUmDYylEF0y3ENsJDe3gWi+nC6UMxc+1+QmSZTQwPdtKy/rEJdGvgm7woamguGXTEl0AdCFu6QwKRviE1cXpeqXO4ibEgQEGiepW2hWYmdIWZXBxe1xxFKdceP8CvQ7H9FoQF9a3KhUzXzB0F5boAmAIMfsXd03J6OQ60962n+jES8dwUCIW1ZoZktuCvyfN0xkUzf9wo4Nvms5k1uBghLECiqmK6siey+k0Bx+4Wz2xPNGqsW0WQxzZmU0qZj5csNlKGbjImC8CJhi7c87nvnydocXjhiGuzFaa5B1cS00AwcficWvR/P9rdPZN04Cn+JtdFGdBk9+KGjm+6FFT2UoJK5r73KHClfiDNNwQeuP8OI2ld2B7YTiS5fabxb7YkJmP1icKqFRPqHhnlh7Bqgc2lPD7ZdDYYz819JaQjstqfCsFxeIlEKO6incVjCmpPC2lXoTIAzLpCrMn3zTsqLgd4nKqN62YqhwH4silDBnapNQOW4AkL6KpGZ3YXugOZAl/q2Z8tjrUASRqZPQBmkH0LgNFNUrEaOVOsnplOPvhaR2IVVvemhLf5lSNKanMLKV2ms694Sm9R6u2sVoAsWuAe2S3UmNKKjtLqXZvmoKwWiSjii8vmCHaWJj3Fl8mCd2gbHBKW3TJQkxpQFklngyosfUUZWcpFSmWObNJ0qBW6wWgpPLwLOmxaiRIHGiIeJWZ9wQjZXIqqaoA18AY7UuGOY4BDRC3MvPRWtegYJRUFl6o9zgG0K3UXrrIqaSqBpTGlou8MUZSVTNCU4InFZSwMj+gDU2XzhhqRRXkQNxoEYccZxDGcj/gJ1NBwSlUfNrgxzhjmGPi+N36253wjuzZd/Ht6W1cZCqGATxH/OFMvGJMSeVnKRWB4jhPQ8bMB/vA9Jcka9d7ntl3goael68Qh9gm9KUjxOAUuoQe4TUDgjZxg85N5qhupWeMDGQZkBOHPKPzQk0aTGyQMLVGqroRMPDi23fjWWZOdD0f/JzBov1j54ylV/tQHDPeqQFBSGqLOjRbKOMSBsUwO44hB6dAU3Lia+bdoLAKfI97b/FlgsjMy2Uz2NTBJjPNnhPkQJypKm2lVGIBBjCoBe0hEH2rKE0TNYPrKUrYjKVU7P/7FX31dHVfI1OiaBgyiEnrohgGCErUlwtJSSXknVmifL/vF/fx25xp+3bpbZ9uQ9hVoUubxxsGXGOUlK+OGU6KqOKDpganAPB7VEkrpU53q1b5/j5e5tMbD2gkU1lObXqGcOvDUqYkmwcDDAIVkYy73di3SQqZ+T/0FCaG1VQVR9FWSp0GgE45J9uvG0ScVjp2VbmG9BrC0YbBlixqDiCOYAK6MIaBSmagoB1cGyt5aN2iiE8K4CkfKrmuV/nuZICM09l21OXZh9s+bGXqdAmiAXEIUlw3Rt0BU9UCV1LJt3eVpgGaVV7BP8fLfX7xGClhsu3Ypbch3HVhrUyNLB4bYBAMMVzjWKsEJcIqUKWzlMqiABSgEBUzBIHRyLFWlatNb0M4a8NkShY3A4MIrTEaClACCgWv+WX/V5GTNGym8QlEpbCkVF4AAF1AZIAgGNKxV5erD08fzmtCT5cQDUMGMZmK6yhGwXAudPitXp3XErKRB2t/k4SvAUZVikupbFQLEHlAShhsO6vT2xDdv+tU/zqJsv+9TkyCGZRCp5/1mjx9kLUuSFLnKicobtmmTSEK+NpmhJHfW7PlrE9vQ7jaMOUpJX1gwmT/ybfxzeLQ17/az3qGCb9P5ATV1JxztRn6j27aUBMhG3EW4rMLiLSUTo+tLFcX3vpwtkuDTiEehk6SuJBBcefLrDuweQ0TD0QCyKVzamaG985sogcY3DtStM9Y2gVEFiNFjJl2NOW9Llx92KrUpcUTkyCH9XEGphYFnN880OC3hHZAGKhhhtQNS6Y2E8kshegDnTngFCCOaJNMed260NWFqShtqg5EhPTqmtsa8n7DxH4hZ8U5dW4d1KkOmRqcQri2WaHtDtnsAiIJnCYdW1Hu+vR2DGd9GIqSombBpNGzaybogPSmn3q9J0I2QpsH1a2zAToO9ACaKqmq7i2qwanvPPVbSdDZcdam6xB72trUmRL4TKTJ7H9SzEf2oPVXni5ouxridDh1ojb9ivbCCxlLu7Wza5JkytvZkN5O4RrCWpOatOamw+w/hv3I7bfuO2AIWiIXVA11HNMDWjVWBf4UklL75OryEI/TyTE17W0I1zlmm4qUkq5l/1FFxa5LIfzN4oLu5p0B69Xf/ds3gWzSdVJXv4mwIvQ2Z+4AIgkRgx57u3Idw9sxbF0YTM2ZqLmA4hTG821iwWdi6wl4v2mg7rg3AcLUGYYvmeq1LlBwYxxlgIIf6dSy/0LCnG1Hlzt6O8Quv6mJ3BAoPWlSsWalkPWbf7VvyG/BRJnTst0zmDY0xlEK0bhFdsM+/RSPOcxc0a59ejvHlKnKmshNRWEaOqovQXzTcQP1vilo27WZu051ULuDBTOaOX8AANAZJHKzNOXtkK7T11mfBptSNBOoPcEQap4DKWL9Pjd7uiC3HSvq3N+chHa9bmAGpRCALewvpnfGAFnEmG1bW95O4e0Ytl32uGRgRFmR8hQGqEScX+/7M9DvoO41DestGXWqZ0wrqcTqzj7ah/WSYq2o7+rp9P29NT/mw/ycPwlDTI9oTzCMCgqsWntgGOiP32+/93d7hjpZ81k9YehGugKUKrGkVBHsP4/TqbGU5TakZwjHLky2ZKLPirPIS8igVmddd0SjcM4zDugDc7gA0kYDWuLmp3upqIcdZ8oE26dYoRBJEvSysavT06e3Iezq0MtKJGb7uHIZDGId/eNqF8NtvmnA6Jmiuds6AutUUwPbjue/HoBUJbCUGs5YDrVQDka2Xbs82dOFpUyttAYiqsWQJh29unXyjyoshtt94y0HBLN2z4w6M8yFtp60mQrdRHij/Pe6tVAOWnIsRbu6/K1TFxabkux1EliTfhksRdt9nwGdbwi2RbszOXWSZlaqF3IJbALZf5Fwo11ZbkN4hnA0YZSVKJqJBA1sjENUox1/9Ize3oFPtBtwKn6eP4pZpkRYUQrREAtIMYNpR1NeQ7j2X7s8dboTsd2gD2d2l2/z1vt6z2cRcH3M20nRZttWfOSSUuWy/zzwe1NeTl0+yT6c2rAUJak6EHqQXC7Q7O5NnumbF/RAfv+QG2V1ICYk1VGlk8AmIrpsVbuiXEN6hnDUYczUYXFQ5VsiitOxo2DuAE/nWaI5u0RpWBdczxa3bEokkre2RCyUgxQxlratriUiJdrK1KUl8GHIRFuUnl6NfcnKnBkCWAwXPLNn8I0LfSRqmLpa7xAbFUDDtMD3il3Rok9hTeR2ssmWs7oWuto4U5uqAyMcsDxtCfqi+85F3/rNDy5Ee6ZS5+pt/VLkiiE/kspIE2HqAiAIQCNnO9cun7Q+nO3ClJUUN4tOvEdUQwaXF33WM77X5+xOWDWBq9P5JBstBCOp/FJV+jO2GyRwBjWruevTWxe2JgyqBD4T8ey6DFej3YHF2+gZfEu0C9TVoXX1KC7UBVBRiaaqqsyIR+19vLNdetuFqwtrZepk81hDD+JUDXMZju2eI/29b/Gt0TwsI6jvBQOS6mFMtOM6kbhJ7m6R1ha1UA7a5FhMO2vzVtcuTDa1xT1I5AYx6OrY0aO+eUDvm3ow6mir7hcAycRoV+7wl0hbgfZRClh+hq0sVxve2rDt0liWMj4TiKCiOEQRIGN7suudwZxv8oyeadNtSAyou4Y48sxKCUNS2emezncBcVqIGct63NXGratp0hLR2Z5BACNhn8zJCdBWOW6UvTPa7pu+6ZnCrdEi4jXU1b+SRhZJVT2rvBMnj2LAcpOpRR4drjTMZGp48+gghtv1i9Sq67hVK8HBj8Odv/d03rpB5HisTJhkMSoOSeWpgh/pAiKJKC0xVrK86XQz4UjDJEoGzcCEO7BxjazTX4wbJgOzt9HT++YxUNZgjRIjAiBmWY/Qa/HtY/rsmozSxe1I6i+eNGxp6okSwcxwWB/lb8IdP1h4YIdvjhY+1xlaFy8CgCEbZk49KTW2NSSAOC1xprjtsnwSHW46LElqidpq8G4jycwPXucbBnRFD0ZIXExNjSQCLsy8pFQCGPqlNR8wVZtJRR0bk2q3NDwmXCpMcUm8V6i5Irah84bXPAniGT9625QBMTbVmbkeJgFJZbhZ0jdVAJGOM2Jj0eVJ4x12Oox4idhMIAZVCM/SsH6JZ/G8/Q0+Z3cjXntdDJ1IR1IZa+8qTQEiLxBFDEk7JeXJwpN+LWnqePOgoQehcXVTqrAvlEMxsA6s3xGwdufy0Btl8aY2z+NgIaCmE++rqvZv6BGNYJaUS6XHxPtNSUqieWTCEXmpRh3IM6Q6xHcFHR7vtfldY/Nr8PKPOaVqId8C3yOVaN7PIUTaTBeNVVLfeJ9DpZFKic9E8C6nxepaf1qlRYHTy3kFv/1Xy4lzVWzi7hNtcUgqzxX8yBTi6OGGqPfylOFWh51JnSwRdLgiqmEYKe/2cwN5vyP0gIQZbZm1lViF9AHwIKm9kE5KTaziupf78ZqWYiZdbnl5a75OZVrp1CT1xnBEVCts/O4fDLR//N1WwVBdtRK7vwf7MI4VlkwZS/vT07yKTc6/m3hgGYtttyI8VTiqMKmS8eYAQpBgL5BD5Oe9vMcFPVuxtua6WC2YhrSVbxqMVw1OtQhmClEyr77+2HSZUTy2IofdqnTY0JPFgZ8FBCS/8ju9rMcH3ZGI6dC6OBYGbbbNaUIrKbXfRT5UMK5X9PM1LQlGaTuK9JRZzO0gnC4qvuB/+46g/R9QS2N+7rwRwFCcWLAwV34GMK8C5V2Pl/rx9ggRz5v1VIH9BX0nsT9JHoUC4CmCgE4cBDiq2l8X2BiFgiDenNotWDkGNaCHFcLzyCJ0e1cJPyQ8WiEUIWCmLoLigA8BFaVooJMipqRSqolTgn90XBPpChCEIgBeCE5iB4WKQ1IFsBqcNkLIgpknOaUAdBSnYEJSS2iHOlqS+GMgphSpS3BKLrdSSuHH9P6cy1U8aFOKCGAprrowZTsAkCmlopNQm1xn+dxKRVNKbcGAbTORCKaUmupowoSk0gp6S6luVhtdJFW1FdBbX+NxIPZiJRVZid6auYVsw18STSm14Ak4ww5ohePSu2k1vEiqahrS+1iHNbxIqqrdofeDe+ugI3tx2/WeibYeangxc1WNI2o3hzEhqQBNLWxq0y6Z9o4UsQh9QhHloeeFs9TCIfcDrkk3JRZBQOxLR7qsSKpgZiG2kC19/rIppXKmz18wsxsWLc2ZHIhFU0ot+faOlGhKqQ/xXEaux5pQm4Wy0ZtuKpTd2Q+azFYqMFKqeIue5y7TC5/SjJpSUl2AIRe5Q+svV9UIADtGLlolUiupI4/XDCmpoonWJkYorKSqOgF/PLADetHIqd2R/aihvSMlDlJqkZjSFr2kVP4YnEIpEk7KZaMIZXf2gzq9YHSfOQlld/bDumAmq3irF9EUzScGC3/5/IVt13vWRofGvS5sNUNT2iIYrYzC/xBooDreg6lbxp+7DD+9rD96acw0AKsUa0rUfW50rfomVR2pfmYZf+rCT1/kzy2mG6ZHpJkxjroUo0Jbga1WBXquGqmCKpvODeYP1jVMj6i2qo7SWElVTelKvaQ4NVUVV2FPYxmFFxFDUmG7dWCGwicZDZesJ/qrfYjkLq2ld8yiSArBNZ2gaY9QlkqDYtgdmp7oc1WYPKzC0jkwf3CE5prdqaonpZ59oET8qCapHjSeqogqnNVWIxcCoaiIPzqzQbi0k5DyRP+4c5DUU5sMLnhcNIX8dkIPmTF9TewEtlr1zdUxaVi5TWuZ+lAE4sJ36wUzWplV4tadfa3a5lPzykKlzlorcCFjEIsc1l5WTBXtn7RJqdWMWvU4qhyJPblJ70RGGILmC5/QiZVL5XWaAWiJd6LPVRCJT2bTWKZhGAziIvvI6Btb7QA5E81rVaAHKlISEjmVP7kghKGirlUdnS3Qkp6S/NbI17goa9VHudJIvKxJ+3sIR0IvTVA9qdRdrFJGratx5UToT2ppLJgPS7BcVAKjT7NspcRdowLVarS2m1RRsMipMBl5mAjPhbZKwQoqW6kU3YrTG0+q9X1WHIn8k5qnt4uKD09iLpzQkTWCMltVrKTUVgbom6yEJvCK7FPZD+4l0HAsJqXRN1bq0yIlpbZ20TZQkIL4hHYVZkb+wz7H4lIbfWMd5IqTwFbNqLXJFcX4ntAwsouOj0jiy2D0jWYgFqPu7Fszsg10NU5MFfgK7JQmRFgCHgEW+4fOyAa0IU/uMtHIHbK8s74llR/xrXLD1IVFJC6+TEbfVPmtyJBoXo1WPYsrRFyXyKizoIhMJQHUnaViZpfPX3TGOto6qdbjtsfywgoM1clhiRSZi+1k9BtaUUg1Ki4t3lm/jMqLuFaJYeIiICqXsFXpWuJMZjYUHCm14gO76EFAfjniuISGzgpFFCp5k906vu9QjnyXBif674MijB2W85gBBYkUlYsb1o7vK4TSlGyE+H/uzcuo3Ii9pNFHNC6x7AN3GbqzUlTDLuP+L+4HPc3lIaYjMAMWJqJSKQAqZdZUlFupkIx1tLWL6vugEGOFsU1KsxEBlbI4CsD6kg2NRFJVOz7OT/RXG0dlRyw76f8OAVlwSRd2MvpCaY1suD6+1fGDvuZyEMPhm62zEkI0lvYZMC0jk+dWKh9SajVatclXwGN4bGOlMcJHIxYgofGypoZWO4BshBVUn+izjBDdrqRoMz8SsuSSN+kUZRFPZSUbpRKSs5e1n+ayMbob10xr4UOWrDnANqzRNzXGUbGQUmvVJsgj/nwssxXG6JVIK0D4ps/YEE98TdUJsfuV1X7k0iN/dqI8YzdzYsmlfjZBTxL2Rwb4uodwDdAKdAIXrofVr7S35LIwP/7xCjoTLrLmWgD8H9KypAy8Ac6AmyZA0w0fmAbigFggGagAlnamyGRKtoE2AYfqN4xetMxsyLOiWgHyNyptJQO+AVfACfB5fUxpFynw/RSwBtQAiUD6EeA0xONh69Vu4vqL/JqEBRM3KrG9FWAnSMvs48AjcAzcBstKw4jy54AhIBdIAoofAz45CJRND7psBeJlsQt6O+I9XKsHxDX6GpwGLoHznbNzSsrwgV/AJlAPpALpQDtwWI4wJ483AZvqFeavsKxodJgV1RZQvxGX+cDfY8ARcJ/tUYqGVwIegJFPXAWKgCngfRNlLstq/3L9RH5M/GIwh4bZwlqcOkFa5rVOTwFnwM+1OSVs2FuAPaBpchJoBHa3JKhKj9K+DKQjD4dZTGsiRfZca0CU1+g3gN/7Vs83Z5W+4WXAu/+6axEoAIbPZ0g60X8aMKme944qGnqGagdoL4nLPEA4vTR1AtC0lcyRHP8y0LJ/EqgDti7ayHnuuL25XpGnKb/YMMcCtQNW8hp9Tbc9N3PdX1Fqh+dcA2aBUiD+E8AAcBdgZdRU7e350on77Xk6i3gD1w6Q/hCXRfG5qcvHe49L9Ig6S0eArEWgClgBfvjoyC/69eFU97B+CrJCTGBLtQfm8hp9rVwEroFj4EO0rtSP08DCv0wC2UDvZddDw4n+o3tzPSMPi5vXzLHEvINWp94pLks614HTegyo28oC4bmXgZ4HF4FKYHFnWvx/Uvbm9qBf5Oai5zXYkWIOXLvpw/K+b3ZlfOm0jiknhNc49TmgGkjef2Qpjor1c7rLQV8fTnUNPIuVFWIDO6oDsAAoeZldBt7OPJcDykI7LinVVaAEmAE+OsX4RB+o7uO6x9zteHlhjsX9oC3A3SlvJbgCXKxeWR9TvgjPvwhsvBZIBTKAtplyUlRP9G/6BOvqMPJqDCryzrWfDmAqb9j0AvC4uq+1VmjHpaq6CowC+YeAov86WhTV1fqgjOS9rV4pVloIBQ5UH7dcOEHlDZtemQLOTgHMmLJJ+Pc9uRdIu7T3/y7YRe5akPu4bpGrHXcxZp415gO0W3c3eY1+Y8s+4ORGtqetzBJeBrwBJn53EigExm6UvCJ1LchNG2Fd3PzmdMZU5IPrAChbycui1u76FPDz8JwyTdjHgYMnTl4CGoDtE36RSeh/UEa8Nuvs272YrIANtqf6BJafTZC34myZB07Op73HZZ3wmrvv+WsgEcgBhuYDr1ikF4WUU7kuyMWYtxgTx4b0BezkHX2ZauQeXarf94U5ZaFIysAp0A1kAikPAKtFQF1trZpxxDo5/vJpjSmPc33uK7DRV+fA/Op1e1Y5KbwK8BmY//DkV4C+y7nXjzPDAQsOBP4F/occWF8/A8wEeVkCiOdWL5epetzo9ybmMtDz1OSHgeUrjX6ak64wG3BBzjcw+kPg9wW0B7buOuqtKF+FBxhOvfmNkw8eWeqnrzTZXTPNBP63dW5pvHNnW9krIrcO9H9iEii/B/iU9sOfitsqeqq+6/TcurJZNLYB62/cPvClmU6E2J9eHlsdDw63ldnCC4D7DwF5QEKvuuoglAD4snXXzpUxZbrwT/zfn146CTQA+xciTB73wnngaF+p8K4GYRh19Wt3Xf3drx1r4nCCQ6enlg7smVMWjOTC24GmS9uBemDnPht3b42cOD9TECnAmcmFOQpMv3ToK3fsKyHtu5Zfm1o6cXhOGTKi8i6g46lJoPbN22xkkV7sTQHeWFHGjPTa3760+J63bs09NCmBu6emLjzcVvaMyN3x4lMj//LRKw304GzbOnM9Wlc2jcYVYOWNk08dmQrxctgkvr5UL9/ZVmYNL6+/8InF4XuuOQghOzU/s1vHlGnD3/YQUNOrru4qR6i4Bh54u2urW3iyKcepq+84dNd/HcXBSA5LV3YsXWkX3HE5T109eXLvkxeS4v4///jozHwBpgDnPnX1PDD+yOIjfzyaFetU7Qd7jzvbzx2Xc7KfXpr8+z/fUmxdmMaFjUsBzsqHbZ4DZl6a/EQRVVe9/ODlpQOAck7ZO5Ly2Y8/dWnhc9v84ufybZmfOVbpPS6Th1e5Bsz99eInXihm6mqUH91x+eIX5pTZIwmnXnzw6gMfPdUoSrLpjZlRf1aZPpydH3hg+1NA15TrFZWrQY6uXr7w8JyyfkTu5Re+Mjn826fTokDlwNbVo/aKikA0etXVxYGP74qjfv5qkHOr9Y1IAc78h23NA8N/OHnXY7udfprmqfGZa200Xq5JziET//2l/U988HjS745F8diu+fBwW8UivNJ5YBQoWHwEmLze7D+vBtk5PoPIFOC0HTLxB5/YPvn3/eGQie0Lx87Ol5ZVSsLLzj320sgf3nGj1K+lAK8vXZmdU2GJ5PhZoG1g+2sf6peyn/onjp0939yjQhPOtXvuuvqJv3yufxkycX5tavXE8pyKTkTh1NueWvyXj57y+4erQU48t3osXVERivQgsPTA4nte7OuzbvPCa0tT9z3cVkGKyK3/1XuuDgOLB/uquupc3Hr2XLKiAhX+gYc+c3X/l1b7nLoadc4t1Y/f2VaxCq81f8c7FnvV1UrfkU23bZ3Z7Y2peIV98fWvPbm/2hfU1aRzfWY8LIDjCooLc+N975h85I+vZwWdAnx86Vp7TIUt7AtPAs0nJ//+Fwsy+6lfHp2Zz5fbKnLhNa8/9tLkf3yosLKfeqWdO5b6vatBODz76Zer+y8Bda+/6BdICvAbU/NBf9dHB6dnPwXKRr4CDD7XMuvCRMHBHVMH9oypIEbSmXrxqckHPnCgYSwF+L5dx5p72iqO4TkHf/7D29/z1h1utNlTgO/ecflifzcwG/bPfvobT03+y78ddDafbHqi97iN2bYKZ3jpgc99ZnHgbathtBleeM4t0SUFOFPMuu2ZT0z+9T2blP20sm1+1/VkRYU1Ghdf/0uTA79w9vj9YxuTAvzoav3mSQyLbETB+fe9YwQIBaKBKMB3+TaPe2p8125vXUU3/PtWx+PbgcgvAhG3j6nanWNT4/Hhtspw3PSS3w+EfRGIAYJOv33pXJioJMdNL2L511sVT0U6LP+x/MfyH8t/LP+x/MfyH8t/LP+x/MfyH8t/LP+x/MfyH8t/LP+x/MfyH8t/LP+x/MfyH8t/LP+x/MfyH6ZEAQA=;" vertex="1" parent="90gTbhmpNN-g71VCx14Y-70">
          <mxGeometry x="50" y="159" width="50" height="50" as="geometry" />
        </mxCell>
        <mxCell id="90gTbhmpNN-g71VCx14Y-64" value="Se utilizara en las pantallas principales (inicio/Login, ménu, instrucciones, juego/laberinto y ranking." style="text;whiteSpace=wrap;html=1;" vertex="1" parent="90gTbhmpNN-g71VCx14Y-70">
          <mxGeometry x="140" y="34.5" width="240" height="60" as="geometry" />
        </mxCell>
        <mxCell id="90gTbhmpNN-g71VCx14Y-69" value="Se utilizara  en los procesos dinámicos como navegación, lógica del laberinto y almacenamiento en localStorage." style="text;whiteSpace=wrap;html=1;" vertex="1" parent="90gTbhmpNN-g71VCx14Y-70">
          <mxGeometry x="140" y="154" width="240" height="60" as="geometry" />
        </mxCell>
        <mxCell id="90gTbhmpNN-g71VCx14Y-27" value="" style="endArrow=classic;html=1;rounded=0;exitX=1;exitY=0.5;exitDx=0;exitDy=0;entryX=0;entryY=0.5;entryDx=0;entryDy=0;" edge="1" parent="90gTbhmpNN-g71VCx14Y-67" source="90gTbhmpNN-g71VCx14Y-45" target="90gTbhmpNN-g71VCx14Y-16">
          <mxGeometry width="50" height="50" relative="1" as="geometry">
            <mxPoint x="722" y="196" as="sourcePoint" />
            <mxPoint x="762" y="194" as="targetPoint" />
          </mxGeometry>
        </mxCell>
        <mxCell id="90gTbhmpNN-g71VCx14Y-20" value="" style="endArrow=classic;html=1;rounded=0;exitX=1;exitY=0.5;exitDx=0;exitDy=0;entryX=0;entryY=0.5;entryDx=0;entryDy=0;" edge="1" parent="90gTbhmpNN-g71VCx14Y-67" source="90gTbhmpNN-g71VCx14Y-12" target="90gTbhmpNN-g71VCx14Y-13">
          <mxGeometry width="50" height="50" relative="1" as="geometry">
            <mxPoint x="392" y="310" as="sourcePoint" />
            <mxPoint x="322" y="193" as="targetPoint" />
            <Array as="points" />
          </mxGeometry>
        </mxCell>
      </root>
    </mxGraphModel>
  </diagram>
</mxfile>
